<svg width="15" height="15" viewBox="0 0 15 15" fill="none" xmlns="http://www.w3.org/2000/svg">
<path d="M5.04101 11.8396L9.10351 2.77712C9.20941 2.54089 9.48676 2.43523 9.72299 2.54113C9.93954 2.6382 10.0464 2.87934 9.9811 3.10082L9.95899 3.16061L5.89649 12.2231C5.79059 12.4593 5.51324 12.565 5.277 12.4591C5.06046 12.362 4.95363 12.1209 5.0189 11.8994L5.04101 11.8396L9.10351 2.77712L5.04101 11.8396ZM1.38729 7.16866L4.04354 4.51241C4.2266 4.32935 4.5234 4.32935 4.70646 4.51241C4.87287 4.67883 4.888 4.93924 4.75184 5.12275L4.70646 5.17532L2.38166 7.50012L4.70646 9.82491C4.88951 10.008 4.88951 10.3048 4.70646 10.4878C4.54004 10.6542 4.27962 10.6694 4.09612 10.5332L4.04354 10.4878L1.38729 7.83157C1.22088 7.66516 1.20575 7.40474 1.34191 7.22123L1.38729 7.16866L4.04354 4.51241L1.38729 7.16866ZM10.2935 4.51241C10.46 4.34599 10.7204 4.33086 10.9039 4.46702L10.9565 4.51241L13.6127 7.16866C13.7791 7.33508 13.7943 7.59549 13.6581 7.779L13.6127 7.83157L10.9565 10.4878C10.7734 10.6709 10.4766 10.6709 10.2935 10.4878C10.1271 10.3214 10.112 10.061 10.2482 9.87748L10.2935 9.82491L12.6183 7.50012L10.2935 5.17532C10.1105 4.99226 10.1105 4.69547 10.2935 4.51241Z" fill="#344E41"/>
</svg>
