<svg width="20" height="20" viewBox="0 0 20 20" fill="none" xmlns="http://www.w3.org/2000/svg">
<path d="M17.961 5.30751C17.9358 5.24732 17.8992 5.19262 17.853 5.1465L12.853 0.146484C12.7591 0.0531562 12.6323 0.000515625 12.5 0H4.5C4.22386 0 3.99998 0.223875 3.99998 0.500015V2.00001H2.49998C2.22384 2.00001 1.99997 2.22389 1.99997 2.50003V19.5C1.99997 19.7761 2.22384 20 2.49998 20H15.5C15.7761 20 16 19.7761 16 19.5V18H17.5C17.7761 18 18 17.7761 18 17.5V5.49998C17.9998 5.43389 17.9866 5.36845 17.961 5.30751ZM13 1.707L16.293 5.00001H13V1.707ZM15 19H3V3H3.99998V17.5C3.99998 17.7761 4.22386 18 4.5 18H15V19ZM17 17H5.00001V0.999984H12V5.49998C12 5.77612 12.2239 6 12.5 6H17V17Z" fill="#344E41"/>
</svg>
