<svg width="20" height="20" viewBox="0 0 20 20" fill="none" xmlns="http://www.w3.org/2000/svg">
<g clip-path="url(#clip0_43_42)">
<path d="M5.01916 16.1277C5.74654 16.9205 6.78449 17.3782 7.85922 17.3782H16.7227C18.5289 17.3782 20 15.907 20 14.1008V5.89939C20 4.09318 18.5289 2.62207 16.7227 2.62207H7.85922C6.78041 2.62207 5.74654 3.07566 5.01916 3.87252L0.450529 8.8457C-0.150176 9.50361 -0.150176 10.4925 0.450529 11.1504L5.01916 16.1277ZM1.19017 9.52405L5.7588 4.54678C6.29821 3.95833 7.06646 3.62325 7.86331 3.62325H16.7268C17.9813 3.62325 19.0029 4.64485 19.0029 5.89939V14.0968C19.0029 15.3513 17.9813 16.3729 16.7268 16.3729H7.85922C7.06237 16.3729 6.29412 16.0378 5.75471 15.4494L1.19017 10.4721C0.9409 10.2024 0.9409 9.79375 1.19017 9.52405Z" fill="#344E41"/>
<path d="M9.21184 12.6583C9.30991 12.7564 9.43659 12.8054 9.56736 12.8054C9.69812 12.8054 9.8248 12.7564 9.92288 12.6583L11.8762 10.705L13.8295 12.6583C13.9276 12.7564 14.0543 12.8054 14.185 12.8054C14.3158 12.8054 14.4425 12.7564 14.5405 12.6583C14.7367 12.4622 14.7367 12.1475 14.5405 11.9514L12.5831 9.99805L14.5365 8.04474C14.7326 7.84859 14.7326 7.53393 14.5365 7.33779C14.3403 7.14164 14.0257 7.14164 13.8295 7.33779L11.8762 9.2911L9.92288 7.33779C9.72673 7.14164 9.41207 7.14164 9.21592 7.33779C9.01978 7.53393 9.01978 7.84859 9.21592 8.04474L11.1692 9.99805L9.21592 11.9514C9.01978 12.1475 9.01978 12.4621 9.21184 12.6583Z" fill="#344E41"/>
</g>
<defs>
<clipPath id="clip0_43_42">
<rect width="20" height="20" fill="white"/>
</clipPath>
</defs>
</svg>
