<svg xmlns="http://www.w3.org/2000/svg" style="display: none;">
    <symbol id="eye-open" viewBox="0 0 512 512">
        <g>
            <path d="   M256,193.4c-46.4,0-86.8,25.2-108.5,62.6c21.7,37.4,62.1,62.6,108.5,62.6c46.4,0,86.8-25.2,108.5-62.6   C342.8,218.6,302.4,193.4,256,193.4z" fill="none" stroke="#000000" stroke-linecap="round" stroke-linejoin="round" stroke-miterlimit="10" stroke-width="10" />
            <circle cx="256" cy="256" fill="none" r="37.7" stroke="#000000" stroke-linecap="round" stroke-linejoin="round" stroke-miterlimit="10" stroke-width="10" />
        </g>
    </symbol>
    <symbol id="eye-closed" viewBox="0 0 512 512">
        <g>
            <path d="   M261.2,193.4c-46.4,0-86.8,25.2-108.5,62.6c21.7,37.4,62.1,62.6,108.5,62.6c46.4,0,86.8-25.2,108.5-62.6   C348,218.6,307.5,193.4,261.2,193.4z" fill="none" stroke="#000000" stroke-linecap="round" stroke-linejoin="round" stroke-miterlimit="10" stroke-width="10" />
            <circle cx="261.2" cy="256" fill="none" r="37.7" stroke="#000000" stroke-linecap="round" stroke-linejoin="round" stroke-miterlimit="10" stroke-width="10" />
            <line fill="none" stroke="#000000" stroke-linecap="round" stroke-linejoin="round" stroke-miterlimit="10" stroke-width="10" x1="152.7" x2="369.6" y1="348.5" y2="170" />
        </g>
    </symbol>
    <symbol id="search" viewBox="-25 -16 50 50">
        <g clip-path="url(#clip0_35_133)">
            <path d="M6.05099 0C2.84309 0 0.242065 2.60105 0.242065 5.80893C0.242065 9.01683 2.84309 11.6179 6.05099 11.6179C7.28453 11.6179 8.42856 11.2331 9.36891 10.5777L13.7618 14.9699C13.8015 15.0096 13.8657 15.0096 13.9033 14.9727L14.7309 14.1451C14.7692 14.1068 14.7658 14.0412 14.7282 14.0036L10.3926 9.66807C11.3056 8.64231 11.8599 7.29052 11.8599 5.8089C11.8599 2.60105 9.2589 0 6.05099 0ZM6.05099 10.9345C3.22034 10.9345 0.925463 8.63958 0.925463 5.80893C0.925463 2.97828 3.22032 0.683421 6.05099 0.683421C8.88167 0.683421 11.1765 2.97828 11.1765 5.80893C11.1765 8.63958 8.88164 10.9345 6.05099 10.9345Z" fill="#344E41" />
        </g>
        <defs>
            <clipPath id="clip0_35_133">
                <rect width="15" height="15" fill="white" />
            </clipPath>
        </defs>
    </symbol>
    <symbol id="plus" viewBox="0 0 22 22">
        <path d="M12.5 5.46875V19.5312" stroke="#272727" stroke-width="2" stroke-linecap="round" stroke-linejoin="round" />
        <path d="M5.46875 12.5H19.5312" stroke="#272727" stroke-width="2" stroke-linecap="round" stroke-linejoin="round" />

    </symbol>
    <symbol id="dots" viewBox="-4 -8 25 25">
        <rect width="4" height="4" rx="2" fill="#344E41" />
        <rect x="6" width="4" height="4" rx="2" fill="#344E41" />
        <rect x="12" width="4" height="4" rx="2" fill="#344E41" />
    </symbol>
    <symbol id="circle" viewBox="0 0 6 6">
        <rect width="6" height="6" rx="6" fill="#344E41" />
    </symbol>
    <symbol id="pencil" viewBox="-3 0 25 25">
        <path d="M15.7779 0L2.11109 13.6668L0 20L6.33313 17.8889L20 4.22211L15.7779 0ZM11.5558 5.9109L12.4002 6.75531L4.3218 14.8338L3.47738 13.9894L11.5558 5.9109ZM2.79422 17.8098L2.1902 17.2058L2.89391 15.0948L4.90527 17.1061L2.79422 17.8098ZM6.01059 16.5226L5.16617 15.6782L13.2446 7.59973L14.0891 8.44414L6.01059 16.5226ZM14.9335 7.5998L12.4002 5.06652L13.2446 4.22211L15.7779 6.75539L14.9335 7.5998ZM14.089 3.37766L15.7779 1.68879L18.3112 4.22211L16.6223 5.91094L14.089 3.37766Z" fill="#344E41" />
    </symbol>
    <symbol id="copy" viewBox="-3 0 25 25">
        <path d="M17.961 5.30751C17.9358 5.24732 17.8992 5.19262 17.853 5.1465L12.853 0.146484C12.7591 0.0531562 12.6323 0.000515625 12.5 0H4.5C4.22386 0 3.99998 0.223875 3.99998 0.500015V2.00001H2.49998C2.22384 2.00001 1.99997 2.22389 1.99997 2.50003V19.5C1.99997 19.7761 2.22384 20 2.49998 20H15.5C15.7761 20 16 19.7761 16 19.5V18H17.5C17.7761 18 18 17.7761 18 17.5V5.49998C17.9998 5.43389 17.9866 5.36845 17.961 5.30751ZM13 1.707L16.293 5.00001H13V1.707ZM15 19H3V3H3.99998V17.5C3.99998 17.7761 4.22386 18 4.5 18H15V19ZM17 17H5.00001V0.999984H12V5.49998C12 5.77612 12.2239 6 12.5 6H17V17Z" fill="#344E41" />
    </symbol>
    <symbol id="tag" viewBox="-3 0 25 25">
        <g clip-path="url(#clip0_43_93)">
            <path d="M14.5497 9.68331L10.3211 5.45464L10.9227 4.85303L15.1514 9.0817L14.5497 9.68331ZM12.2832 11.9499L8.05452 7.72123L8.65613 7.11962L12.8848 11.3483L12.2832 11.9499ZM10.0166 14.2164L5.78796 9.98771L6.38961 9.38606L10.6183 13.6147L10.0166 14.2164ZM7.74984 16.4831L3.52112 12.2544L4.12277 11.6527L8.35149 15.8815L7.74984 16.4831Z" fill="#344E41" />
            <path d="M19.4895 0.518497C19.1588 0.186762 18.7188 0.00415039 18.2451 0.00415039L12.5205 0.0218011C12.0549 0.0232446 11.6173 0.205237 11.2887 0.534292L0.515473 11.3073C-0.457174 12.364 0.184975 13.4512 0.515473 13.7816L6.22252 19.4886C7.28429 20.4427 8.36651 19.8191 8.69681 19.4886L19.4698 8.71558C19.7989 8.38653 19.9809 7.94901 19.9823 7.48362L20 1.75896C20.0015 1.29072 19.8201 0.850273 19.4895 0.518497ZM19.1314 7.48118C19.1308 7.72009 19.0373 7.94485 18.8682 8.11397L8.0952 18.887C7.75571 19.2264 7.16362 19.2264 6.82418 18.887L1.11712 13.1799C0.947422 13.0102 0.619275 12.4132 1.11712 11.9089L11.8906 1.13594C12.0593 0.966818 12.284 0.873326 12.5229 0.872749L18.2505 0.855098C18.4911 0.855098 18.7169 0.949002 18.8869 1.11928C19.0566 1.28965 19.1499 1.51593 19.149 1.75648L19.1314 7.48118Z" fill="#344E41" />
            <path d="M16.1111 2.23169C15.1936 2.23169 14.4498 2.97545 14.4498 3.89296C14.4498 4.81047 15.1936 5.55424 16.1111 5.55424C17.0286 5.55424 17.7723 4.81047 17.7723 3.89296C17.7723 2.97545 17.0286 2.23169 16.1111 2.23169ZM16.1111 4.7195C15.6546 4.7195 15.2846 4.34945 15.2846 3.89296C15.2846 3.43648 15.6546 3.06643 16.1111 3.06643C16.5675 3.06643 16.9376 3.43648 16.9376 3.89296C16.9376 4.34945 16.5675 4.7195 16.1111 4.7195Z" fill="#344E41" />
        </g>
        <defs>
            <clipPath id="clip0_43_93">
                <rect width="20" height="20" fill="white" />
            </clipPath>
        </defs>
    </symbol>
    <symbol id="share" viewBox="-2 0 25 25">
        <path d="M14.809 13.7162C14.1891 13.7162 13.6117 13.8964 13.1248 14.2063L8.21087 10.7756C8.28976 10.5002 8.33289 10.2098 8.33289 9.90908C8.33289 9.60835 8.28976 9.31787 8.21087 9.04253L12.9921 5.70441C13.5051 6.06881 14.1318 6.2838 14.809 6.2838C16.5441 6.2838 17.9508 4.87711 17.9508 3.14192C17.9508 1.40673 16.5442 0 14.809 0C13.0738 0 11.6671 1.40669 11.6671 3.14188C11.6671 3.37104 11.6923 3.59423 11.7389 3.80944L6.83624 7.23233C6.35767 6.93758 5.79434 6.7672 5.19101 6.7672C3.45582 6.7672 2.04913 8.17389 2.04913 9.90908C2.04913 11.6443 3.45578 13.051 5.19101 13.051C5.79429 13.051 6.35767 12.8806 6.83624 12.5858L11.7768 16.0351C11.7057 16.2975 11.6671 16.5733 11.6671 16.8581C11.6671 18.5933 13.0738 20 14.809 20C16.5442 20 17.9509 18.5933 17.9509 16.8581C17.9509 15.1229 16.5442 13.7162 14.809 13.7162Z" fill="#344E41" />
    </symbol>
    <symbol id="remove" viewBox="-3 0 25 25">
        <g clip-path="url(#clip0_43_42)">
            <path d="M5.01916 16.1277C5.74654 16.9205 6.78449 17.3782 7.85922 17.3782H16.7227C18.5289 17.3782 20 15.907 20 14.1008V5.89939C20 4.09318 18.5289 2.62207 16.7227 2.62207H7.85922C6.78041 2.62207 5.74654 3.07566 5.01916 3.87252L0.450529 8.8457C-0.150176 9.50361 -0.150176 10.4925 0.450529 11.1504L5.01916 16.1277ZM1.19017 9.52405L5.7588 4.54678C6.29821 3.95833 7.06646 3.62325 7.86331 3.62325H16.7268C17.9813 3.62325 19.0029 4.64485 19.0029 5.89939V14.0968C19.0029 15.3513 17.9813 16.3729 16.7268 16.3729H7.85922C7.06237 16.3729 6.29412 16.0378 5.75471 15.4494L1.19017 10.4721C0.9409 10.2024 0.9409 9.79375 1.19017 9.52405Z" fill="#344E41" />
            <path d="M9.21184 12.6583C9.30991 12.7564 9.43659 12.8054 9.56736 12.8054C9.69812 12.8054 9.8248 12.7564 9.92288 12.6583L11.8762 10.705L13.8295 12.6583C13.9276 12.7564 14.0543 12.8054 14.185 12.8054C14.3158 12.8054 14.4425 12.7564 14.5405 12.6583C14.7367 12.4622 14.7367 12.1475 14.5405 11.9514L12.5831 9.99805L14.5365 8.04474C14.7326 7.84859 14.7326 7.53393 14.5365 7.33779C14.3403 7.14164 14.0257 7.14164 13.8295 7.33779L11.8762 9.2911L9.92288 7.33779C9.72673 7.14164 9.41207 7.14164 9.21592 7.33779C9.01978 7.53393 9.01978 7.84859 9.21592 8.04474L11.1692 9.99805L9.21592 11.9514C9.01978 12.1475 9.01978 12.4621 9.21184 12.6583Z" fill="#344E41" />
        </g>
        <defs>
            <clipPath id="clip0_43_42">
                <rect width="20" height="20" fill="white" />
            </clipPath>
        </defs>
    </symbol>
    <symbol id="bold-icon" viewBox="0 0 10 10">
        <path d="M0.684 9V0.599999H5.172C6.332 0.599999 7.188 0.808 7.74 1.224C8.292 1.632 8.568 2.156 8.568 2.796C8.568 3.22 8.448 3.6 8.208 3.936C7.976 4.264 7.636 4.524 7.188 4.716C6.74 4.908 6.188 5.004 5.532 5.004L5.772 4.356C6.428 4.356 6.992 4.448 7.464 4.632C7.944 4.816 8.312 5.084 8.568 5.436C8.832 5.78 8.964 6.196 8.964 6.684C8.964 7.412 8.66 7.98 8.052 8.388C7.452 8.796 6.572 9 5.412 9H0.684ZM3.468 7.02H5.172C5.484 7.02 5.716 6.964 5.868 6.852C6.028 6.74 6.108 6.576 6.108 6.36C6.108 6.144 6.028 5.98 5.868 5.868C5.716 5.756 5.484 5.7 5.172 5.7H3.276V3.828H4.788C5.108 3.828 5.34 3.776 5.484 3.672C5.636 3.56 5.712 3.404 5.712 3.204C5.712 2.996 5.636 2.84 5.484 2.736C5.34 2.632 5.108 2.58 4.788 2.58H3.468V7.02Z" fill="#26392F" />
    </symbol>
    <symbol id="italic-icon" viewBox="-3 0 10 10">
        <path d="M0.348 9L2.028 0.599999H3.984L2.304 9H0.348Z" fill="#26392F" />
    </symbol>
    <symbol id="dotted-list-icon" viewBox="10 8 13 13">
        <g opacity="0.8" filter="url(#filter0_d_47_162)">
            <rect x="4" width="30" height="30" rx="6" fill="white" />
        </g>
        <path d="M17.3868 10.988H26.7618C26.8913 10.988 26.9961 10.8832 26.9961 10.7538C26.9961 10.6244 26.8913 10.5195 26.7618 10.5195H17.3868C17.2574 10.5195 17.1526 10.6244 17.1526 10.7538C17.1526 10.8832 17.2574 10.988 17.3868 10.988Z" fill="#344E41" />
        <path d="M26.7618 15.3352H17.3868C17.2574 15.3352 17.1526 15.44 17.1526 15.5695C17.1526 15.6989 17.2574 15.8037 17.3868 15.8037H26.7618C26.8913 15.8037 26.9961 15.6989 26.9961 15.5695C26.9961 15.44 26.8913 15.3352 26.7618 15.3352Z" fill="#344E41" />
        <path d="M26.7618 20.0117H17.3868C17.2574 20.0117 17.1526 20.1166 17.1526 20.246C17.1526 20.3754 17.2574 20.4802 17.3868 20.4802H26.7618C26.8913 20.4802 26.9961 20.3754 26.9961 20.246C26.9961 20.1166 26.8913 20.0117 26.7618 20.0117Z" fill="#344E41" />
        <path d="M13.4025 9.35522C12.6313 9.35522 12.0038 9.98269 12.0038 10.7539C12.0038 11.5251 12.6313 12.1526 13.4025 12.1526C14.1737 12.1526 14.8012 11.5251 14.8012 10.7539C14.8012 9.98269 14.1737 9.35522 13.4025 9.35522ZM13.4025 11.699C12.8813 11.699 12.4574 11.2751 12.4574 10.7539C12.4574 10.2327 12.8813 9.80886 13.4025 9.80886C13.9236 9.80886 14.3475 10.2327 14.3475 10.7539C14.3475 11.2751 13.9236 11.699 13.4025 11.699Z" fill="#344E41" />
        <path d="M13.4025 14.1707C12.6313 14.1707 12.0038 14.7981 12.0038 15.5693C12.0038 16.3406 12.6313 16.968 13.4025 16.968C14.1737 16.968 14.8012 16.3406 14.8012 15.5693C14.8012 14.7981 14.1737 14.1707 13.4025 14.1707ZM13.4025 16.5144C12.8813 16.5144 12.4574 16.0905 12.4574 15.5693C12.4574 15.0482 12.8813 14.6243 13.4025 14.6243C13.9236 14.6243 14.3475 15.0482 14.3475 15.5693C14.3475 16.0905 13.9236 16.5144 13.4025 16.5144Z" fill="#344E41" />
        <path d="M13.4025 18.8474C12.6313 18.8474 12.0038 19.4749 12.0038 20.2461C12.0038 21.0173 12.6313 21.6448 13.4025 21.6448C14.1737 21.6448 14.8012 21.0173 14.8012 20.2461C14.8012 19.4749 14.1737 18.8474 13.4025 18.8474ZM13.4025 21.1912C12.8813 21.1912 12.4574 20.7673 12.4574 20.2461C12.4574 19.7249 12.8813 19.301 13.4025 19.301C13.9236 19.301 14.3475 19.7249 14.3475 20.2461C14.3475 20.7673 13.9236 21.1912 13.4025 21.1912Z" fill="#344E41" />
        <defs>
            <filter id="filter0_d_47_162" x="0" y="0" width="38" height="38" filterUnits="userSpaceOnUse" color-interpolation-filters="sRGB">
                <feFlood flood-opacity="0" result="BackgroundImageFix" />
                <feColorMatrix in="SourceAlpha" type="matrix" values="0 0 0 0 0 0 0 0 0 0 0 0 0 0 0 0 0 0 127 0" result="hardAlpha" />
                <feOffset dy="4" />
                <feGaussianBlur stdDeviation="2" />
                <feComposite in2="hardAlpha" operator="out" />
                <feColorMatrix type="matrix" values="0 0 0 0 0 0 0 0 0 0 0 0 0 0 0 0 0 0 0.25 0" />
                <feBlend mode="normal" in2="BackgroundImageFix" result="effect1_dropShadow_47_162" />
                <feBlend mode="normal" in="SourceGraphic" in2="effect1_dropShadow_47_162" result="shape" />
            </filter>
        </defs>
    </symbol>
    <symbol id="list-icon" viewBox="0 0 15 15">
        <g clip-path="url(#clip0_47_198)">
            <path d="M4.83002 2.53333H14.2905C14.6823 2.53333 15 2.21565 15 1.82379C15 1.43194 14.6823 1.11426 14.2905 1.11426H4.83002C4.43817 1.11426 4.12048 1.43194 4.12048 1.82379C4.12048 2.21565 4.43817 2.53333 4.83002 2.53333Z" fill="#344E41" />
            <path d="M14.2905 6.79053H4.83002C4.43817 6.79053 4.12048 7.10821 4.12048 7.50006C4.12048 7.89192 4.43817 8.2096 4.83002 8.2096H14.2905C14.6823 8.2096 15 7.89192 15 7.50006C15 7.10816 14.6824 6.79053 14.2905 6.79053Z" fill="#344E41" />
            <path d="M14.2905 12.4668H4.83002C4.43817 12.4668 4.12048 12.7845 4.12048 13.1763C4.12048 13.5682 4.43817 13.8859 4.83002 13.8859H14.2905C14.6823 13.8859 15 13.5682 15 13.1763C15 12.7845 14.6824 12.4668 14.2905 12.4668Z" fill="#344E41" />
            <path d="M0.843233 2.31962V4.09648C0.843233 4.28919 1.00028 4.43451 1.2086 4.43451C1.41342 4.43451 1.57382 4.28602 1.57382 4.09648V1.43932C1.57382 1.252 1.42023 1.10522 1.22416 1.10522C1.05169 1.10522 0.965415 1.22093 0.937081 1.25896C0.935899 1.26057 0.934716 1.26217 0.933534 1.26388L0.624839 1.70057C0.564906 1.76575 0.511597 1.87001 0.511597 1.97001C0.511549 2.16063 0.659795 2.31612 0.843233 2.31962Z" fill="#344E41" />
            <path d="M0.360996 9.16473H1.75197C1.93404 9.16473 2.08219 9.00433 2.08219 8.80717C2.08219 8.6121 1.93408 8.4534 1.75197 8.4534H0.741969V8.44758C0.741969 8.34139 0.985482 8.16954 1.18117 8.03146C1.57042 7.75678 2.05485 7.41497 2.05485 6.82218C2.05485 6.25961 1.61891 5.83545 1.04078 5.83545C0.487199 5.83545 0.069803 6.21595 0.069803 6.72052C0.069803 7.01333 0.260384 7.11725 0.423577 7.11725C0.657156 7.11725 0.796745 6.94332 0.796745 6.77525C0.796745 6.67076 0.823613 6.5508 1.03297 6.5508C1.31579 6.5508 1.32393 6.80141 1.32393 6.82998C1.32393 7.05523 1.0316 7.26582 0.748875 7.46946C0.399406 7.72116 0.00329591 8.00649 0.00329591 8.44767V8.82666C0.00324861 9.02888 0.188248 9.16473 0.360996 9.16473Z" fill="#344E41" />
            <path d="M2.00784 11.4843C2.00784 10.9005 1.6631 10.5657 1.06208 10.5657C0.274022 10.5657 0.0657976 11.1285 0.0657976 11.4261C0.0657976 11.7725 0.323359 11.8099 0.434094 11.8099C0.649745 11.8099 0.794585 11.665 0.794585 11.4494C0.794585 11.3664 0.824102 11.2712 1.05413 11.2712C1.21945 11.2712 1.28677 11.295 1.28677 11.5346C1.28677 11.7686 1.23653 11.7941 1.03866 11.7941C0.848604 11.7941 0.705325 11.9441 0.705325 12.143C0.705325 12.3397 0.850354 12.4881 1.04264 12.4881C1.30398 12.4881 1.35649 12.5948 1.35649 12.767V12.8408C1.35649 13.1305 1.24348 13.1855 1.03493 13.1855C0.747188 13.1855 0.724814 13.0373 0.724814 12.9919C0.724814 12.8202 0.610957 12.6468 0.356565 12.6468C0.133298 12.6468 0 12.786 0 13.0191C0 13.4436 0.364039 13.8949 1.03866 13.8949C1.69399 13.8949 2.08528 13.5008 2.08528 12.8408V12.767C2.08528 12.4964 1.99871 12.272 1.83628 12.1107C1.94753 11.9497 2.00784 11.7349 2.00784 11.4843Z" fill="#344E41" />
        </g>
        <defs>
            <clipPath id="clip0_47_198">
                <rect width="15" height="15" fill="white" />
            </clipPath>
        </defs>
    </symbol>
    <symbol id="h1-icon" viewBox="0 -2 13 13">
        <path d="M4.788 2.448C5.3 2.448 5.756 2.552 6.156 2.76C6.564 2.96 6.884 3.272 7.116 3.696C7.348 4.112 7.464 4.648 7.464 5.304V9H5.592V5.592C5.592 5.072 5.476 4.688 5.244 4.44C5.02 4.192 4.7 4.068 4.284 4.068C3.988 4.068 3.72 4.132 3.48 4.26C3.248 4.38 3.064 4.568 2.928 4.824C2.8 5.08 2.736 5.408 2.736 5.808V9H0.864V0.0959995H2.736V4.332L2.316 3.792C2.548 3.36 2.88 3.028 3.312 2.796C3.744 2.564 4.236 2.448 4.788 2.448ZM9.83822 9V1.32L10.6782 2.16H8.15822V0.599999H11.7822V9H9.83822Z" fill="#26392F"/>
    </symbol>
    <symbol id="h2-icon" viewBox="0 -2 15 15">
        <path d="M4.788 2.448C5.3 2.448 5.756 2.552 6.156 2.76C6.564 2.96 6.884 3.272 7.116 3.696C7.348 4.112 7.464 4.648 7.464 5.304V9H5.592V5.592C5.592 5.072 5.476 4.688 5.244 4.44C5.02 4.192 4.7 4.068 4.284 4.068C3.988 4.068 3.72 4.132 3.48 4.26C3.248 4.38 3.064 4.568 2.928 4.824C2.8 5.08 2.736 5.408 2.736 5.808V9H0.864V0.0959995H2.736V4.332L2.316 3.792C2.548 3.36 2.88 3.028 3.312 2.796C3.744 2.564 4.236 2.448 4.788 2.448ZM8.63428 9V7.74L11.8743 4.68C12.1303 4.448 12.3183 4.24 12.4383 4.056C12.5583 3.872 12.6383 3.704 12.6783 3.552C12.7263 3.4 12.7503 3.26 12.7503 3.132C12.7503 2.796 12.6343 2.54 12.4023 2.364C12.1783 2.18 11.8463 2.088 11.4063 2.088C11.0543 2.088 10.7263 2.156 10.4223 2.292C10.1263 2.428 9.87428 2.64 9.66628 2.928L8.25028 2.016C8.57028 1.536 9.01828 1.156 9.59428 0.875999C10.1703 0.596 10.8343 0.456 11.5863 0.456C12.2103 0.456 12.7543 0.56 13.2183 0.767999C13.6903 0.968 14.0543 1.252 14.3103 1.62C14.5743 1.988 14.7063 2.428 14.7063 2.94C14.7063 3.212 14.6703 3.484 14.5983 3.756C14.5343 4.02 14.3983 4.3 14.1903 4.596C13.9903 4.892 13.6943 5.224 13.3023 5.592L10.6143 8.124L10.2423 7.416H14.9823V9H8.63428Z" fill="#26392F"/>
    </symbol>
    <symbol id="h3-icon" viewBox="0 -2 15 15">
        <path d="M4.788 2.448C5.3 2.448 5.756 2.552 6.156 2.76C6.564 2.96 6.884 3.272 7.116 3.696C7.348 4.112 7.464 4.648 7.464 5.304V9H5.592V5.592C5.592 5.072 5.476 4.688 5.244 4.44C5.02 4.192 4.7 4.068 4.284 4.068C3.988 4.068 3.72 4.132 3.48 4.26C3.248 4.38 3.064 4.568 2.928 4.824C2.8 5.08 2.736 5.408 2.736 5.808V9H0.864V0.0959995H2.736V4.332L2.316 3.792C2.548 3.36 2.88 3.028 3.312 2.796C3.744 2.564 4.236 2.448 4.788 2.448ZM11.4889 9.144C10.9049 9.144 10.3249 9.068 9.74888 8.916C9.17288 8.756 8.68488 8.532 8.28487 8.244L9.04088 6.756C9.36088 6.988 9.73288 7.172 10.1569 7.308C10.5809 7.444 11.0089 7.512 11.4409 7.512C11.9289 7.512 12.3129 7.416 12.5929 7.224C12.8729 7.032 13.0129 6.768 13.0129 6.432C13.0129 6.112 12.8889 5.86 12.6409 5.676C12.3929 5.492 11.9929 5.4 11.4409 5.4H10.5529V4.116L12.8929 1.464L13.1089 2.16H8.70488V0.599999H14.5849V1.86L12.2569 4.512L11.2729 3.948H11.8369C12.8689 3.948 13.6489 4.18 14.1769 4.644C14.7049 5.108 14.9689 5.704 14.9689 6.432C14.9689 6.904 14.8449 7.348 14.5969 7.764C14.3489 8.172 13.9689 8.504 13.4569 8.76C12.9449 9.016 12.2889 9.144 11.4889 9.144Z" fill="#26392F"/>
    </symbol>
    <symbol id="code-icon" viewBox="0 0 15 15">
        <path d="M5.04101 11.8396L9.10351 2.77712C9.20941 2.54089 9.48676 2.43523 9.72299 2.54113C9.93954 2.6382 10.0464 2.87934 9.9811 3.10082L9.95899 3.16061L5.89649 12.2231C5.79059 12.4593 5.51324 12.565 5.277 12.4591C5.06046 12.362 4.95363 12.1209 5.0189 11.8994L5.04101 11.8396L9.10351 2.77712L5.04101 11.8396ZM1.38729 7.16866L4.04354 4.51241C4.2266 4.32935 4.5234 4.32935 4.70646 4.51241C4.87287 4.67883 4.888 4.93924 4.75184 5.12275L4.70646 5.17532L2.38166 7.50012L4.70646 9.82491C4.88951 10.008 4.88951 10.3048 4.70646 10.4878C4.54004 10.6542 4.27962 10.6694 4.09612 10.5332L4.04354 10.4878L1.38729 7.83157C1.22088 7.66516 1.20575 7.40474 1.34191 7.22123L1.38729 7.16866L4.04354 4.51241L1.38729 7.16866ZM10.2935 4.51241C10.46 4.34599 10.7204 4.33086 10.9039 4.46702L10.9565 4.51241L13.6127 7.16866C13.7791 7.33508 13.7943 7.59549 13.6581 7.779L13.6127 7.83157L10.9565 10.4878C10.7734 10.6709 10.4766 10.6709 10.2935 10.4878C10.1271 10.3214 10.112 10.061 10.2482 9.87748L10.2935 9.82491L12.6183 7.50012L10.2935 5.17532C10.1105 4.99226 10.1105 4.69547 10.2935 4.51241Z" fill="#344E41" />
    </symbol>
    <symbol id="table-icon" viewBox="0 0 15 15">
        <path d="M0 1.25439V3.10833V3.61395V13.7455H15V3.61395V3.10833V1.25439H0ZM9.32585 9.35709H5.67415V6.99114H9.32585V9.35709ZM10.3371 6.99114H13.9888V9.35709H10.3371V6.99114ZM9.32585 10.3683V12.7343H5.67415V10.3683H9.32585ZM1.01124 6.99114H4.66291V9.35709H1.01124V6.99114ZM5.67415 5.9799V3.61395H9.32585V5.9799H5.67415ZM4.66291 3.61395V5.9799H1.01124V3.61395H4.66291ZM1.01124 10.3683H4.66291V12.7343H1.01124V10.3683ZM10.3371 12.7343V10.3683H13.9888V12.7343H10.3371ZM13.9888 5.9799H10.3371V3.61395H13.9888V5.9799Z" fill="#344E41" />
    </symbol>
    <symbol id="markup-icon" viewBox="0 0 15 15">
        <path d="M1.34766 2.8125C0.618897 2.8125 0 3.40027 0 4.13086V10.8691C0 11.5997 0.618897 12.1875 1.34766 12.1875H13.6523C14.3811 12.1875 15 11.5997 15 10.8691V4.13086C15 3.40027 14.3811 2.8125 13.6523 2.8125H1.34766ZM1.34766 3.75H13.6523C13.894 3.75 14.0625 3.92944 14.0625 4.13086V10.8691C14.0625 11.0706 13.894 11.25 13.6523 11.25H1.34766C1.10596 11.25 0.9375 11.0706 0.9375 10.8691V4.13086C0.9375 3.92944 1.10596 3.75 1.34766 3.75ZM2.34375 5.15625V9.84375H3.75V6.72363L5.15625 8.58398L6.5625 6.72363V9.84375H7.96875V5.15625H6.5625L5.15625 7.03125L3.75 5.15625H2.34375ZM10.3125 5.15625V7.5H8.90625L11.0156 9.84375L13.125 7.5H11.7188V5.15625H10.3125Z" fill="#344E41" />
    </symbol>
    <symbol id="underscoped-icon" viewBox="0 0 10 10">
        <path d="M4.728 9.144C3.536 9.144 2.604 8.812 1.932 8.148C1.26 7.484 0.924 6.536 0.924 5.304V0.599999H2.868V5.232C2.868 6.032 3.032 6.608 3.36 6.96C3.688 7.312 4.148 7.488 4.74 7.488C5.332 7.488 5.792 7.312 6.12 6.96C6.448 6.608 6.612 6.032 6.612 5.232V0.599999H8.532V5.304C8.532 6.536 8.196 7.484 7.524 8.148C6.852 8.812 5.92 9.144 4.728 9.144Z" fill="#26392F" />
        <path d="M0 10.5H9.456V11.1H0V10.5Z" fill="#26392F" />
    </symbol>
</svg>