<svg xmlns="http://www.w3.org/2000/svg" style="display: none;">
    <symbol id="eye-open" viewBox="0 0 512 512">
        <g>
            <path d="   M256,193.4c-46.4,0-86.8,25.2-108.5,62.6c21.7,37.4,62.1,62.6,108.5,62.6c46.4,0,86.8-25.2,108.5-62.6   C342.8,218.6,302.4,193.4,256,193.4z" fill="none" stroke="#000000" stroke-linecap="round" stroke-linejoin="round" stroke-miterlimit="10" stroke-width="10" />
            <circle cx="256" cy="256" fill="none" r="37.7" stroke="#000000" stroke-linecap="round" stroke-linejoin="round" stroke-miterlimit="10" stroke-width="10" />
        </g>
    </symbol>
    <symbol id="eye-closed" viewBox="0 0 512 512">
        <g>
            <path d="   M261.2,193.4c-46.4,0-86.8,25.2-108.5,62.6c21.7,37.4,62.1,62.6,108.5,62.6c46.4,0,86.8-25.2,108.5-62.6   C348,218.6,307.5,193.4,261.2,193.4z" fill="none" stroke="#000000" stroke-linecap="round" stroke-linejoin="round" stroke-miterlimit="10" stroke-width="10" />
            <circle cx="261.2" cy="256" fill="none" r="37.7" stroke="#000000" stroke-linecap="round" stroke-linejoin="round" stroke-miterlimit="10" stroke-width="10" />
            <line fill="none" stroke="#000000" stroke-linecap="round" stroke-linejoin="round" stroke-miterlimit="10" stroke-width="10" x1="152.7" x2="369.6" y1="348.5" y2="170" />
        </g>
    </symbol>
    <symbol id="search" viewBox="-25 -16 50 50">
        <g clip-path="url(#clip0_35_133)">
            <path d="M6.05099 0C2.84309 0 0.242065 2.60105 0.242065 5.80893C0.242065 9.01683 2.84309 11.6179 6.05099 11.6179C7.28453 11.6179 8.42856 11.2331 9.36891 10.5777L13.7618 14.9699C13.8015 15.0096 13.8657 15.0096 13.9033 14.9727L14.7309 14.1451C14.7692 14.1068 14.7658 14.0412 14.7282 14.0036L10.3926 9.66807C11.3056 8.64231 11.8599 7.29052 11.8599 5.8089C11.8599 2.60105 9.2589 0 6.05099 0ZM6.05099 10.9345C3.22034 10.9345 0.925463 8.63958 0.925463 5.80893C0.925463 2.97828 3.22032 0.683421 6.05099 0.683421C8.88167 0.683421 11.1765 2.97828 11.1765 5.80893C11.1765 8.63958 8.88164 10.9345 6.05099 10.9345Z" fill="#344E41" />
        </g>
        <defs>
            <clipPath id="clip0_35_133">
                <rect width="15" height="15" fill="white" />
            </clipPath>
        </defs>
    </symbol>
    <symbol id="plus" viewBox="0 0 22 22">
        <path d="M12.5 5.46875V19.5312" stroke="#272727" stroke-width="2" stroke-linecap="round" stroke-linejoin="round" />
        <path d="M5.46875 12.5H19.5312" stroke="#272727" stroke-width="2" stroke-linecap="round" stroke-linejoin="round" />

    </symbol>
    <symbol id="dots" viewBox="-4 -8 25 25">
        <rect width="4" height="4" rx="2" fill="#344E41" />
        <rect x="6" width="4" height="4" rx="2" fill="#344E41" />
        <rect x="12" width="4" height="4" rx="2" fill="#344E41" />
    </symbol>
    <symbol id="white-dots" viewBox="-4 -8 25 25">
        <rect width="4" height="4" rx="2" fill="white" />
        <rect x="6" width="4" height="4" rx="2" fill="white" />
        <rect x="12" width="4" height="4" rx="2" fill="white" />
    </symbol>
    <symbol id="circle" viewBox="0 0 6 6">
        <rect width="6" height="6" rx="6" fill="#344E41" />
    </symbol>
    <symbol id="pencil" viewBox="-3 0 25 25">
        <path d="M15.7779 0L2.11109 13.6668L0 20L6.33313 17.8889L20 4.22211L15.7779 0ZM11.5558 5.9109L12.4002 6.75531L4.3218 14.8338L3.47738 13.9894L11.5558 5.9109ZM2.79422 17.8098L2.1902 17.2058L2.89391 15.0948L4.90527 17.1061L2.79422 17.8098ZM6.01059 16.5226L5.16617 15.6782L13.2446 7.59973L14.0891 8.44414L6.01059 16.5226ZM14.9335 7.5998L12.4002 5.06652L13.2446 4.22211L15.7779 6.75539L14.9335 7.5998ZM14.089 3.37766L15.7779 1.68879L18.3112 4.22211L16.6223 5.91094L14.089 3.37766Z" fill="#344E41" />
    </symbol>
    <symbol id="copy" viewBox="-3 0 25 25">
        <path d="M17.961 5.30751C17.9358 5.24732 17.8992 5.19262 17.853 5.1465L12.853 0.146484C12.7591 0.0531562 12.6323 0.000515625 12.5 0H4.5C4.22386 0 3.99998 0.223875 3.99998 0.500015V2.00001H2.49998C2.22384 2.00001 1.99997 2.22389 1.99997 2.50003V19.5C1.99997 19.7761 2.22384 20 2.49998 20H15.5C15.7761 20 16 19.7761 16 19.5V18H17.5C17.7761 18 18 17.7761 18 17.5V5.49998C17.9998 5.43389 17.9866 5.36845 17.961 5.30751ZM13 1.707L16.293 5.00001H13V1.707ZM15 19H3V3H3.99998V17.5C3.99998 17.7761 4.22386 18 4.5 18H15V19ZM17 17H5.00001V0.999984H12V5.49998C12 5.77612 12.2239 6 12.5 6H17V17Z" fill="#344E41" />
    </symbol>
    <symbol id="tag" viewBox="-3 0 25 25">
        <g clip-path="url(#clip0_43_93)">
            <path d="M14.5497 9.68331L10.3211 5.45464L10.9227 4.85303L15.1514 9.0817L14.5497 9.68331ZM12.2832 11.9499L8.05452 7.72123L8.65613 7.11962L12.8848 11.3483L12.2832 11.9499ZM10.0166 14.2164L5.78796 9.98771L6.38961 9.38606L10.6183 13.6147L10.0166 14.2164ZM7.74984 16.4831L3.52112 12.2544L4.12277 11.6527L8.35149 15.8815L7.74984 16.4831Z" fill="#344E41" />
            <path d="M19.4895 0.518497C19.1588 0.186762 18.7188 0.00415039 18.2451 0.00415039L12.5205 0.0218011C12.0549 0.0232446 11.6173 0.205237 11.2887 0.534292L0.515473 11.3073C-0.457174 12.364 0.184975 13.4512 0.515473 13.7816L6.22252 19.4886C7.28429 20.4427 8.36651 19.8191 8.69681 19.4886L19.4698 8.71558C19.7989 8.38653 19.9809 7.94901 19.9823 7.48362L20 1.75896C20.0015 1.29072 19.8201 0.850273 19.4895 0.518497ZM19.1314 7.48118C19.1308 7.72009 19.0373 7.94485 18.8682 8.11397L8.0952 18.887C7.75571 19.2264 7.16362 19.2264 6.82418 18.887L1.11712 13.1799C0.947422 13.0102 0.619275 12.4132 1.11712 11.9089L11.8906 1.13594C12.0593 0.966818 12.284 0.873326 12.5229 0.872749L18.2505 0.855098C18.4911 0.855098 18.7169 0.949002 18.8869 1.11928C19.0566 1.28965 19.1499 1.51593 19.149 1.75648L19.1314 7.48118Z" fill="#344E41" />
            <path d="M16.1111 2.23169C15.1936 2.23169 14.4498 2.97545 14.4498 3.89296C14.4498 4.81047 15.1936 5.55424 16.1111 5.55424C17.0286 5.55424 17.7723 4.81047 17.7723 3.89296C17.7723 2.97545 17.0286 2.23169 16.1111 2.23169ZM16.1111 4.7195C15.6546 4.7195 15.2846 4.34945 15.2846 3.89296C15.2846 3.43648 15.6546 3.06643 16.1111 3.06643C16.5675 3.06643 16.9376 3.43648 16.9376 3.89296C16.9376 4.34945 16.5675 4.7195 16.1111 4.7195Z" fill="#344E41" />
        </g>
        <defs>
            <clipPath id="clip0_43_93">
                <rect width="20" height="20" fill="white" />
            </clipPath>
        </defs>
    </symbol>
    <symbol id="share" viewBox="-2 0 25 25">
        <path d="M14.809 13.7162C14.1891 13.7162 13.6117 13.8964 13.1248 14.2063L8.21087 10.7756C8.28976 10.5002 8.33289 10.2098 8.33289 9.90908C8.33289 9.60835 8.28976 9.31787 8.21087 9.04253L12.9921 5.70441C13.5051 6.06881 14.1318 6.2838 14.809 6.2838C16.5441 6.2838 17.9508 4.87711 17.9508 3.14192C17.9508 1.40673 16.5442 0 14.809 0C13.0738 0 11.6671 1.40669 11.6671 3.14188C11.6671 3.37104 11.6923 3.59423 11.7389 3.80944L6.83624 7.23233C6.35767 6.93758 5.79434 6.7672 5.19101 6.7672C3.45582 6.7672 2.04913 8.17389 2.04913 9.90908C2.04913 11.6443 3.45578 13.051 5.19101 13.051C5.79429 13.051 6.35767 12.8806 6.83624 12.5858L11.7768 16.0351C11.7057 16.2975 11.6671 16.5733 11.6671 16.8581C11.6671 18.5933 13.0738 20 14.809 20C16.5442 20 17.9509 18.5933 17.9509 16.8581C17.9509 15.1229 16.5442 13.7162 14.809 13.7162Z" fill="#344E41" />
    </symbol>
    <symbol id="remove" viewBox="-3 0 25 25">
        <g clip-path="url(#clip0_43_42)">
            <path d="M5.01916 16.1277C5.74654 16.9205 6.78449 17.3782 7.85922 17.3782H16.7227C18.5289 17.3782 20 15.907 20 14.1008V5.89939C20 4.09318 18.5289 2.62207 16.7227 2.62207H7.85922C6.78041 2.62207 5.74654 3.07566 5.01916 3.87252L0.450529 8.8457C-0.150176 9.50361 -0.150176 10.4925 0.450529 11.1504L5.01916 16.1277ZM1.19017 9.52405L5.7588 4.54678C6.29821 3.95833 7.06646 3.62325 7.86331 3.62325H16.7268C17.9813 3.62325 19.0029 4.64485 19.0029 5.89939V14.0968C19.0029 15.3513 17.9813 16.3729 16.7268 16.3729H7.85922C7.06237 16.3729 6.29412 16.0378 5.75471 15.4494L1.19017 10.4721C0.9409 10.2024 0.9409 9.79375 1.19017 9.52405Z" fill="#344E41" />
            <path d="M9.21184 12.6583C9.30991 12.7564 9.43659 12.8054 9.56736 12.8054C9.69812 12.8054 9.8248 12.7564 9.92288 12.6583L11.8762 10.705L13.8295 12.6583C13.9276 12.7564 14.0543 12.8054 14.185 12.8054C14.3158 12.8054 14.4425 12.7564 14.5405 12.6583C14.7367 12.4622 14.7367 12.1475 14.5405 11.9514L12.5831 9.99805L14.5365 8.04474C14.7326 7.84859 14.7326 7.53393 14.5365 7.33779C14.3403 7.14164 14.0257 7.14164 13.8295 7.33779L11.8762 9.2911L9.92288 7.33779C9.72673 7.14164 9.41207 7.14164 9.21592 7.33779C9.01978 7.53393 9.01978 7.84859 9.21592 8.04474L11.1692 9.99805L9.21592 11.9514C9.01978 12.1475 9.01978 12.4621 9.21184 12.6583Z" fill="#344E41" />
        </g>
        <defs>
            <clipPath id="clip0_43_42">
                <rect width="20" height="20" fill="white" />
            </clipPath>
        </defs>
    </symbol>
    <symbol id="bold-icon" viewBox="0 0 10 10">
        <path d="M0.684 9V0.599999H5.172C6.332 0.599999 7.188 0.808 7.74 1.224C8.292 1.632 8.568 2.156 8.568 2.796C8.568 3.22 8.448 3.6 8.208 3.936C7.976 4.264 7.636 4.524 7.188 4.716C6.74 4.908 6.188 5.004 5.532 5.004L5.772 4.356C6.428 4.356 6.992 4.448 7.464 4.632C7.944 4.816 8.312 5.084 8.568 5.436C8.832 5.78 8.964 6.196 8.964 6.684C8.964 7.412 8.66 7.98 8.052 8.388C7.452 8.796 6.572 9 5.412 9H0.684ZM3.468 7.02H5.172C5.484 7.02 5.716 6.964 5.868 6.852C6.028 6.74 6.108 6.576 6.108 6.36C6.108 6.144 6.028 5.98 5.868 5.868C5.716 5.756 5.484 5.7 5.172 5.7H3.276V3.828H4.788C5.108 3.828 5.34 3.776 5.484 3.672C5.636 3.56 5.712 3.404 5.712 3.204C5.712 2.996 5.636 2.84 5.484 2.736C5.34 2.632 5.108 2.58 4.788 2.58H3.468V7.02Z" fill="#26392F" />
    </symbol>
    <symbol id="italic-icon" viewBox="-3 0 10 10">
        <path d="M0.348 9L2.028 0.599999H3.984L2.304 9H0.348Z" fill="#26392F" />
    </symbol>
    <symbol id="dotted-list-icon" viewBox="10 8 13 13">
        <g opacity="0.8" filter="url(#filter0_d_47_162)">
            <rect x="4" width="30" height="30" rx="6" fill="white" />
        </g>
        <path d="M17.3868 10.988H26.7618C26.8913 10.988 26.9961 10.8832 26.9961 10.7538C26.9961 10.6244 26.8913 10.5195 26.7618 10.5195H17.3868C17.2574 10.5195 17.1526 10.6244 17.1526 10.7538C17.1526 10.8832 17.2574 10.988 17.3868 10.988Z" fill="#344E41" />
        <path d="M26.7618 15.3352H17.3868C17.2574 15.3352 17.1526 15.44 17.1526 15.5695C17.1526 15.6989 17.2574 15.8037 17.3868 15.8037H26.7618C26.8913 15.8037 26.9961 15.6989 26.9961 15.5695C26.9961 15.44 26.8913 15.3352 26.7618 15.3352Z" fill="#344E41" />
        <path d="M26.7618 20.0117H17.3868C17.2574 20.0117 17.1526 20.1166 17.1526 20.246C17.1526 20.3754 17.2574 20.4802 17.3868 20.4802H26.7618C26.8913 20.4802 26.9961 20.3754 26.9961 20.246C26.9961 20.1166 26.8913 20.0117 26.7618 20.0117Z" fill="#344E41" />
        <path d="M13.4025 9.35522C12.6313 9.35522 12.0038 9.98269 12.0038 10.7539C12.0038 11.5251 12.6313 12.1526 13.4025 12.1526C14.1737 12.1526 14.8012 11.5251 14.8012 10.7539C14.8012 9.98269 14.1737 9.35522 13.4025 9.35522ZM13.4025 11.699C12.8813 11.699 12.4574 11.2751 12.4574 10.7539C12.4574 10.2327 12.8813 9.80886 13.4025 9.80886C13.9236 9.80886 14.3475 10.2327 14.3475 10.7539C14.3475 11.2751 13.9236 11.699 13.4025 11.699Z" fill="#344E41" />
        <path d="M13.4025 14.1707C12.6313 14.1707 12.0038 14.7981 12.0038 15.5693C12.0038 16.3406 12.6313 16.968 13.4025 16.968C14.1737 16.968 14.8012 16.3406 14.8012 15.5693C14.8012 14.7981 14.1737 14.1707 13.4025 14.1707ZM13.4025 16.5144C12.8813 16.5144 12.4574 16.0905 12.4574 15.5693C12.4574 15.0482 12.8813 14.6243 13.4025 14.6243C13.9236 14.6243 14.3475 15.0482 14.3475 15.5693C14.3475 16.0905 13.9236 16.5144 13.4025 16.5144Z" fill="#344E41" />
        <path d="M13.4025 18.8474C12.6313 18.8474 12.0038 19.4749 12.0038 20.2461C12.0038 21.0173 12.6313 21.6448 13.4025 21.6448C14.1737 21.6448 14.8012 21.0173 14.8012 20.2461C14.8012 19.4749 14.1737 18.8474 13.4025 18.8474ZM13.4025 21.1912C12.8813 21.1912 12.4574 20.7673 12.4574 20.2461C12.4574 19.7249 12.8813 19.301 13.4025 19.301C13.9236 19.301 14.3475 19.7249 14.3475 20.2461C14.3475 20.7673 13.9236 21.1912 13.4025 21.1912Z" fill="#344E41" />
    </symbol>
    <symbol id="list-icon" viewBox="0 0 15 15">
        <g clip-path="url(#clip0_47_198)">
            <path d="M4.83002 2.53333H14.2905C14.6823 2.53333 15 2.21565 15 1.82379C15 1.43194 14.6823 1.11426 14.2905 1.11426H4.83002C4.43817 1.11426 4.12048 1.43194 4.12048 1.82379C4.12048 2.21565 4.43817 2.53333 4.83002 2.53333Z" fill="#344E41" />
            <path d="M14.2905 6.79053H4.83002C4.43817 6.79053 4.12048 7.10821 4.12048 7.50006C4.12048 7.89192 4.43817 8.2096 4.83002 8.2096H14.2905C14.6823 8.2096 15 7.89192 15 7.50006C15 7.10816 14.6824 6.79053 14.2905 6.79053Z" fill="#344E41" />
            <path d="M14.2905 12.4668H4.83002C4.43817 12.4668 4.12048 12.7845 4.12048 13.1763C4.12048 13.5682 4.43817 13.8859 4.83002 13.8859H14.2905C14.6823 13.8859 15 13.5682 15 13.1763C15 12.7845 14.6824 12.4668 14.2905 12.4668Z" fill="#344E41" />
            <path d="M0.843233 2.31962V4.09648C0.843233 4.28919 1.00028 4.43451 1.2086 4.43451C1.41342 4.43451 1.57382 4.28602 1.57382 4.09648V1.43932C1.57382 1.252 1.42023 1.10522 1.22416 1.10522C1.05169 1.10522 0.965415 1.22093 0.937081 1.25896C0.935899 1.26057 0.934716 1.26217 0.933534 1.26388L0.624839 1.70057C0.564906 1.76575 0.511597 1.87001 0.511597 1.97001C0.511549 2.16063 0.659795 2.31612 0.843233 2.31962Z" fill="#344E41" />
            <path d="M0.360996 9.16473H1.75197C1.93404 9.16473 2.08219 9.00433 2.08219 8.80717C2.08219 8.6121 1.93408 8.4534 1.75197 8.4534H0.741969V8.44758C0.741969 8.34139 0.985482 8.16954 1.18117 8.03146C1.57042 7.75678 2.05485 7.41497 2.05485 6.82218C2.05485 6.25961 1.61891 5.83545 1.04078 5.83545C0.487199 5.83545 0.069803 6.21595 0.069803 6.72052C0.069803 7.01333 0.260384 7.11725 0.423577 7.11725C0.657156 7.11725 0.796745 6.94332 0.796745 6.77525C0.796745 6.67076 0.823613 6.5508 1.03297 6.5508C1.31579 6.5508 1.32393 6.80141 1.32393 6.82998C1.32393 7.05523 1.0316 7.26582 0.748875 7.46946C0.399406 7.72116 0.00329591 8.00649 0.00329591 8.44767V8.82666C0.00324861 9.02888 0.188248 9.16473 0.360996 9.16473Z" fill="#344E41" />
            <path d="M2.00784 11.4843C2.00784 10.9005 1.6631 10.5657 1.06208 10.5657C0.274022 10.5657 0.0657976 11.1285 0.0657976 11.4261C0.0657976 11.7725 0.323359 11.8099 0.434094 11.8099C0.649745 11.8099 0.794585 11.665 0.794585 11.4494C0.794585 11.3664 0.824102 11.2712 1.05413 11.2712C1.21945 11.2712 1.28677 11.295 1.28677 11.5346C1.28677 11.7686 1.23653 11.7941 1.03866 11.7941C0.848604 11.7941 0.705325 11.9441 0.705325 12.143C0.705325 12.3397 0.850354 12.4881 1.04264 12.4881C1.30398 12.4881 1.35649 12.5948 1.35649 12.767V12.8408C1.35649 13.1305 1.24348 13.1855 1.03493 13.1855C0.747188 13.1855 0.724814 13.0373 0.724814 12.9919C0.724814 12.8202 0.610957 12.6468 0.356565 12.6468C0.133298 12.6468 0 12.786 0 13.0191C0 13.4436 0.364039 13.8949 1.03866 13.8949C1.69399 13.8949 2.08528 13.5008 2.08528 12.8408V12.767C2.08528 12.4964 1.99871 12.272 1.83628 12.1107C1.94753 11.9497 2.00784 11.7349 2.00784 11.4843Z" fill="#344E41" />
        </g>
        <defs>
            <clipPath id="clip0_47_198">
                <rect width="15" height="15" fill="white" />
            </clipPath>
        </defs>
    </symbol>
    <symbol id="h1-icon" viewBox="0 -2 13 13">
        <path d="M4.788 2.448C5.3 2.448 5.756 2.552 6.156 2.76C6.564 2.96 6.884 3.272 7.116 3.696C7.348 4.112 7.464 4.648 7.464 5.304V9H5.592V5.592C5.592 5.072 5.476 4.688 5.244 4.44C5.02 4.192 4.7 4.068 4.284 4.068C3.988 4.068 3.72 4.132 3.48 4.26C3.248 4.38 3.064 4.568 2.928 4.824C2.8 5.08 2.736 5.408 2.736 5.808V9H0.864V0.0959995H2.736V4.332L2.316 3.792C2.548 3.36 2.88 3.028 3.312 2.796C3.744 2.564 4.236 2.448 4.788 2.448ZM9.83822 9V1.32L10.6782 2.16H8.15822V0.599999H11.7822V9H9.83822Z" fill="#26392F" />
    </symbol>
    <symbol id="h2-icon" viewBox="0 -2 15 15">
        <path d="M4.788 2.448C5.3 2.448 5.756 2.552 6.156 2.76C6.564 2.96 6.884 3.272 7.116 3.696C7.348 4.112 7.464 4.648 7.464 5.304V9H5.592V5.592C5.592 5.072 5.476 4.688 5.244 4.44C5.02 4.192 4.7 4.068 4.284 4.068C3.988 4.068 3.72 4.132 3.48 4.26C3.248 4.38 3.064 4.568 2.928 4.824C2.8 5.08 2.736 5.408 2.736 5.808V9H0.864V0.0959995H2.736V4.332L2.316 3.792C2.548 3.36 2.88 3.028 3.312 2.796C3.744 2.564 4.236 2.448 4.788 2.448ZM8.63428 9V7.74L11.8743 4.68C12.1303 4.448 12.3183 4.24 12.4383 4.056C12.5583 3.872 12.6383 3.704 12.6783 3.552C12.7263 3.4 12.7503 3.26 12.7503 3.132C12.7503 2.796 12.6343 2.54 12.4023 2.364C12.1783 2.18 11.8463 2.088 11.4063 2.088C11.0543 2.088 10.7263 2.156 10.4223 2.292C10.1263 2.428 9.87428 2.64 9.66628 2.928L8.25028 2.016C8.57028 1.536 9.01828 1.156 9.59428 0.875999C10.1703 0.596 10.8343 0.456 11.5863 0.456C12.2103 0.456 12.7543 0.56 13.2183 0.767999C13.6903 0.968 14.0543 1.252 14.3103 1.62C14.5743 1.988 14.7063 2.428 14.7063 2.94C14.7063 3.212 14.6703 3.484 14.5983 3.756C14.5343 4.02 14.3983 4.3 14.1903 4.596C13.9903 4.892 13.6943 5.224 13.3023 5.592L10.6143 8.124L10.2423 7.416H14.9823V9H8.63428Z" fill="#26392F" />
    </symbol>
    <symbol id="h3-icon" viewBox="0 -2 15 15">
        <path d="M4.788 2.448C5.3 2.448 5.756 2.552 6.156 2.76C6.564 2.96 6.884 3.272 7.116 3.696C7.348 4.112 7.464 4.648 7.464 5.304V9H5.592V5.592C5.592 5.072 5.476 4.688 5.244 4.44C5.02 4.192 4.7 4.068 4.284 4.068C3.988 4.068 3.72 4.132 3.48 4.26C3.248 4.38 3.064 4.568 2.928 4.824C2.8 5.08 2.736 5.408 2.736 5.808V9H0.864V0.0959995H2.736V4.332L2.316 3.792C2.548 3.36 2.88 3.028 3.312 2.796C3.744 2.564 4.236 2.448 4.788 2.448ZM11.4889 9.144C10.9049 9.144 10.3249 9.068 9.74888 8.916C9.17288 8.756 8.68488 8.532 8.28487 8.244L9.04088 6.756C9.36088 6.988 9.73288 7.172 10.1569 7.308C10.5809 7.444 11.0089 7.512 11.4409 7.512C11.9289 7.512 12.3129 7.416 12.5929 7.224C12.8729 7.032 13.0129 6.768 13.0129 6.432C13.0129 6.112 12.8889 5.86 12.6409 5.676C12.3929 5.492 11.9929 5.4 11.4409 5.4H10.5529V4.116L12.8929 1.464L13.1089 2.16H8.70488V0.599999H14.5849V1.86L12.2569 4.512L11.2729 3.948H11.8369C12.8689 3.948 13.6489 4.18 14.1769 4.644C14.7049 5.108 14.9689 5.704 14.9689 6.432C14.9689 6.904 14.8449 7.348 14.5969 7.764C14.3489 8.172 13.9689 8.504 13.4569 8.76C12.9449 9.016 12.2889 9.144 11.4889 9.144Z" fill="#26392F" />
    </symbol>
    <symbol id="code-icon" viewBox="0 0 15 15">
        <path d="M5.04101 11.8396L9.10351 2.77712C9.20941 2.54089 9.48676 2.43523 9.72299 2.54113C9.93954 2.6382 10.0464 2.87934 9.9811 3.10082L9.95899 3.16061L5.89649 12.2231C5.79059 12.4593 5.51324 12.565 5.277 12.4591C5.06046 12.362 4.95363 12.1209 5.0189 11.8994L5.04101 11.8396L9.10351 2.77712L5.04101 11.8396ZM1.38729 7.16866L4.04354 4.51241C4.2266 4.32935 4.5234 4.32935 4.70646 4.51241C4.87287 4.67883 4.888 4.93924 4.75184 5.12275L4.70646 5.17532L2.38166 7.50012L4.70646 9.82491C4.88951 10.008 4.88951 10.3048 4.70646 10.4878C4.54004 10.6542 4.27962 10.6694 4.09612 10.5332L4.04354 10.4878L1.38729 7.83157C1.22088 7.66516 1.20575 7.40474 1.34191 7.22123L1.38729 7.16866L4.04354 4.51241L1.38729 7.16866ZM10.2935 4.51241C10.46 4.34599 10.7204 4.33086 10.9039 4.46702L10.9565 4.51241L13.6127 7.16866C13.7791 7.33508 13.7943 7.59549 13.6581 7.779L13.6127 7.83157L10.9565 10.4878C10.7734 10.6709 10.4766 10.6709 10.2935 10.4878C10.1271 10.3214 10.112 10.061 10.2482 9.87748L10.2935 9.82491L12.6183 7.50012L10.2935 5.17532C10.1105 4.99226 10.1105 4.69547 10.2935 4.51241Z" fill="#344E41" />
    </symbol>
    <symbol id="table-icon" viewBox="0 0 15 15">
        <path d="M0 1.25439V3.10833V3.61395V13.7455H15V3.61395V3.10833V1.25439H0ZM9.32585 9.35709H5.67415V6.99114H9.32585V9.35709ZM10.3371 6.99114H13.9888V9.35709H10.3371V6.99114ZM9.32585 10.3683V12.7343H5.67415V10.3683H9.32585ZM1.01124 6.99114H4.66291V9.35709H1.01124V6.99114ZM5.67415 5.9799V3.61395H9.32585V5.9799H5.67415ZM4.66291 3.61395V5.9799H1.01124V3.61395H4.66291ZM1.01124 10.3683H4.66291V12.7343H1.01124V10.3683ZM10.3371 12.7343V10.3683H13.9888V12.7343H10.3371ZM13.9888 5.9799H10.3371V3.61395H13.9888V5.9799Z" fill="#344E41" />
    </symbol>
    <symbol id="markup-icon" viewBox="0 0 15 15">
        <path d="M1.34766 2.8125C0.618897 2.8125 0 3.40027 0 4.13086V10.8691C0 11.5997 0.618897 12.1875 1.34766 12.1875H13.6523C14.3811 12.1875 15 11.5997 15 10.8691V4.13086C15 3.40027 14.3811 2.8125 13.6523 2.8125H1.34766ZM1.34766 3.75H13.6523C13.894 3.75 14.0625 3.92944 14.0625 4.13086V10.8691C14.0625 11.0706 13.894 11.25 13.6523 11.25H1.34766C1.10596 11.25 0.9375 11.0706 0.9375 10.8691V4.13086C0.9375 3.92944 1.10596 3.75 1.34766 3.75ZM2.34375 5.15625V9.84375H3.75V6.72363L5.15625 8.58398L6.5625 6.72363V9.84375H7.96875V5.15625H6.5625L5.15625 7.03125L3.75 5.15625H2.34375ZM10.3125 5.15625V7.5H8.90625L11.0156 9.84375L13.125 7.5H11.7188V5.15625H10.3125Z" fill="#344E41" />
    </symbol>
    <symbol id="underscoped-icon" viewBox="0 0 10 10">
        <path d="M4.728 9.144C3.536 9.144 2.604 8.812 1.932 8.148C1.26 7.484 0.924 6.536 0.924 5.304V0.599999H2.868V5.232C2.868 6.032 3.032 6.608 3.36 6.96C3.688 7.312 4.148 7.488 4.74 7.488C5.332 7.488 5.792 7.312 6.12 6.96C6.448 6.608 6.612 6.032 6.612 5.232V0.599999H8.532V5.304C8.532 6.536 8.196 7.484 7.524 8.148C6.852 8.812 5.92 9.144 4.728 9.144Z" fill="#26392F" />
        <path d="M0 10.5H9.456V11.1H0V10.5Z" fill="#26392F" />
    </symbol>
    <symbol id="save-icon" viewBox="0 0 13 13">
        <svg version="1.1" id="Capa_1" xmlns="http://www.w3.org/2000/svg" xmlns:xlink="http://www.w3.org/1999/xlink" x="0px" y="0px" viewBox="0 0 486 486" style="enable-background:new 0 0 486 486;" xml:space="preserve">
            <g>
                <g>
                    <path d="M473.7,485.75c6.8,0,12.3-5.5,12.3-12.3v-359.8c0-3.6-1.6-7-4.3-9.3L363,2.85c-0.2-0.2-0.4-0.3-0.6-0.4
			c-0.3-0.2-0.5-0.4-0.8-0.6c-0.4-0.2-0.7-0.4-1.1-0.6c-0.3-0.1-0.6-0.3-0.9-0.4c-0.4-0.2-0.9-0.3-1.3-0.4c-0.3-0.1-0.6-0.2-0.9-0.2
			c-0.8-0.1-1.5-0.2-2.3-0.2H12.3C5.5,0.05,0,5.55,0,12.35v461.3c0,6.8,5.5,12.3,12.3,12.3h461.4V485.75z M384.5,461.25h-283v-184.1
			c0-3.7,3-6.6,6.6-6.6h269.8c3.7,0,6.6,3,6.6,6.6V461.25z M161.8,24.45h180.9v127.8c0,0.8-0.6,1.4-1.4,1.4h-178
			c-0.8,0-1.4-0.7-1.4-1.4V24.45H161.8z M24.6,24.45h112.8v127.8c0,14.3,11.6,25.9,25.9,25.9h178c14.3,0,25.9-11.6,25.9-25.9V38.75
			l94.2,80.6v341.9H409v-184.1c0-17.2-14-31.1-31.1-31.1H108.1c-17.2,0-31.1,14-31.1,31.1v184.2H24.6V24.45z" />
                    <path d="M227.4,77.65h53.8v32.6c0,6.8,5.5,12.3,12.3,12.3s12.3-5.5,12.3-12.3v-44.8c0-6.8-5.5-12.3-12.3-12.3h-66.1
			c-6.8,0-12.3,5.5-12.3,12.3S220.7,77.65,227.4,77.65z" />
                    <path d="M304.5,322.85h-123c-6.8,0-12.3,5.5-12.3,12.3s5.5,12.3,12.3,12.3h123c6.8,0,12.3-5.5,12.3-12.3
			S311.3,322.85,304.5,322.85z" />
                    <path d="M304.5,387.75h-123c-6.8,0-12.3,5.5-12.3,12.3s5.5,12.3,12.3,12.3h123c6.8,0,12.3-5.5,12.3-12.3
			S311.3,387.75,304.5,387.75z" />
                </g>
            </g>
        </svg>
    </symbol>
    <symbol id="read-icon" viewBox="1 2 17 17">
        <svg width="20" height="20" fill="none" xmlns="http://www.w3.org/2000/svg">
            <path d="M6.5 6C6.22386 6 6 6.22386 6 6.5C6 6.77614 6.22386 7 6.5 7H13.5C13.7761 7 14 6.77614 14 6.5C14 6.22386 13.7761 6 13.5 6H6.5Z" fill="#212121" />
            <path d="M6 8.5C6 8.22386 6.22386 8 6.5 8H13.5C13.7761 8 14 8.22386 14 8.5C14 8.77614 13.7761 9 13.5 9H6.5C6.22386 9 6 8.77614 6 8.5Z" fill="#212121" />
            <path d="M6.5 10C6.22386 10 6 10.2239 6 10.5C6 10.7761 6.22386 11 6.5 11H10.5C10.7761 11 11 10.7761 11 10.5C11 10.2239 10.7761 10 10.5 10H6.5Z" fill="#212121" />
            <path d="M4 3.5C4 2.67157 4.67157 2 5.5 2H14.5C15.3284 2 16 2.67157 16 3.5V16.5C16 17.3284 15.3284 18 14.5 18H5.5C4.67157 18 4 17.3284 4 16.5V3.5ZM5.5 3C5.22386 3 5 3.22386 5 3.5V16.5C5 16.7761 5.22386 17 5.5 17H14.5C14.7761 17 15 16.7761 15 16.5V3.5C15 3.22386 14.7761 3 14.5 3H5.5Z" fill="#212121" />
        </svg>
    </symbol>
    <symbol id="e-mail">
        <svg enable-background="new 0 0 64 64" fill="#424242" version="1.1" viewBox="0 0 64 64" xml:space="preserve" xmlns="http://www.w3.org/2000/svg" xmlns:xlink="http://www.w3.org/1999/xlink">
            <g id="Glyph_copy_2">
                <path d="M63.125,9.977c-0.902-1.321-2.419-2.194-4.131-2.194H5.006c-1.676,0-3.158,0.842-4.067,2.117l31.16,25.982L63.125,9.977z" />
                <path d="M0.006,14.328v36.889c0,2.75,2.25,5,5,5h53.988c2.75,0,5-2.25,5-5V14.461L32.099,41.09L0.006,14.328z" />
            </g>
        </svg>
    </symbol>
    <symbol id="key" viewBox="1 2 550 550">
        <svg version="1.1" id="Capa_1" fill="#424242" xmlns="http://www.w3.org/2000/svg" xmlns:xlink="http://www.w3.org/1999/xlink" x="0px" y="0px" width="516.375px" height="516.375px" viewBox="0 0 516.375 516.375" style="enable-background:new 0 0 516.375 516.375;" xml:space="preserve">
            <g>
                <path d="M353.812,0C263.925,0,191.25,72.675,191.25,162.562c0,19.125,3.825,38.25,9.562,57.375L0,420.75v95.625h95.625V459H153
		v-57.375h57.375l86.062-86.062c17.213,5.737,36.338,9.562,57.375,9.562c89.888,0,162.562-72.675,162.562-162.562S443.7,0,353.812,0
		z M401.625,172.125c-32.513,0-57.375-24.862-57.375-57.375s24.862-57.375,57.375-57.375S459,82.237,459,114.75
		S434.138,172.125,401.625,172.125z" />
            </g>
        </svg>
    </symbol>
    <symbol id="check">
        <svg width="16" height="12" viewBox="0 -1 9 7" fill="none" xmlns="http://www.w3.org/2000/svg">
            <path d="M7.07031 0.570312L2.75 4.89062L0.929688 3.07031L0.570312 3.42969L2.57031 5.42969L2.75 5.60156L2.92969 5.42969L7.42969 0.929688L7.07031 0.570312Z" fill="#FFFFFE" />
        </svg>
    </symbol>
    <symbol id="ya-logo">
        <svg xmlns="http://www.w3.org/2000/svg" viewBox="0 0 256 512" fill="white">
            <path d="M153.1 315.8L65.7 512H2l96-209.8c-45.1-22.9-75.2-64.4-75.2-141.1C22.7 53.7 90.8 0 171.7 0H254v512h-55.1V315.8h-45.8zm45.8-269.3h-29.4c-44.4 0-87.4 29.4-87.4 114.6 0 82.3 39.4 108.8 87.4 108.8h29.4V46.5z" />
        </svg>
    </symbol>
    <symbol id="google-logo">
        <svg enable-background="new 0 0 512 512" id="Layer_1" version="1.1" viewBox="0 0 512 512" xml:space="preserve" xmlns="http://www.w3.org/2000/svg" xmlns:xlink="http://www.w3.org/1999/xlink">
            <g>
                <path d="M42.4,145.9c15.5-32.3,37.4-59.6,65-82.3c37.4-30.9,80.3-49.5,128.4-55.2c56.5-6.7,109.6,4,158.7,33.4   c12.2,7.3,23.6,15.6,34.5,24.6c2.7,2.2,2.4,3.5,0.1,5.7c-22.3,22.2-44.6,44.4-66.7,66.8c-2.6,2.6-4,2.4-6.8,0.3   c-64.8-49.9-159.3-36.4-207.6,29.6c-8.5,11.6-15.4,24.1-20.2,37.7c-0.4,1.2-1.2,2.3-1.8,3.5c-12.9-9.8-25.9-19.6-38.7-29.5   C72.3,169,57.3,157.5,42.4,145.9z" fill="#E94335" />
                <path d="M126,303.8c4.3,9.5,7.9,19.4,13.3,28.3c22.7,37.2,55.1,61.1,97.8,69.6c38.5,7.7,75.5,2.5,110-16.8   c1.2-0.6,2.4-1.2,3.5-1.8c0.6,0.6,1.1,1.3,1.7,1.8c25.8,20,51.7,40,77.5,60c-12.4,12.3-26.5,22.2-41.5,30.8   c-43.5,24.8-90.6,34.8-140.2,31C186.3,501.9,133,477.5,89,433.5c-19.3-19.3-35.2-41.1-46.7-66c10.7-8.2,21.4-16.3,32.1-24.5   C91.6,329.9,108.8,316.9,126,303.8z" fill="#34A853" />
                <path d="M429.9,444.9c-25.8-20-51.7-40-77.5-60c-0.6-0.5-1.2-1.2-1.7-1.8c8.9-6.9,18-13.6,25.3-22.4   c12.2-14.6,20.3-31.1,24.5-49.6c0.5-2.3,0.1-3.1-2.2-3c-1.2,0.1-2.3,0-3.5,0c-40.8,0-81.7-0.1-122.5,0.1c-4.5,0-5.5-1.2-5.4-5.5   c0.2-29,0.2-58,0-87c0-3.7,1-4.7,4.7-4.7c74.8,0.1,149.6,0.1,224.5,0c3.2,0,4.5,0.8,5.3,4.2c6.1,27.5,5.7,55.1,2,82.9   c-3,22.2-8.4,43.7-16.7,64.5c-12.3,30.7-30.4,57.5-54.2,80.5C431.6,443.8,430.7,444.3,429.9,444.9z" fill="#4285F3" />
                <path d="M126,303.8c-17.2,13.1-34.4,26.1-51.6,39.2c-10.7,8.1-21.4,16.3-32.1,24.5C34,352.1,28.6,335.8,24.2,319   c-8.4-32.5-9.7-65.5-5.1-98.6c3.6-26,11.1-51,23.2-74.4c15,11.5,29.9,23.1,44.9,34.6c12.9,9.9,25.8,19.7,38.7,29.5   c-2.2,10.7-5.3,21.2-6.3,32.2c-1.8,20,0.1,39.5,5.8,58.7C125.8,301.8,125.9,302.8,126,303.8z" fill="#FABB06" />
            </g>
        </svg>
    </symbol>
    <symbol id="arrow-down">
        <svg width="17" height="17" viewBox="0 0 17 17" fill="none" xmlns="http://www.w3.org/2000/svg">
            <path d="M16.8301 4.56495L15.9785 3.71337C15.865 3.59965 15.7343 3.54297 15.5865 3.54297C15.4391 3.54297 15.3084 3.59965 15.1949 3.71337L8.50009 10.4078L1.80555 3.71355C1.69201 3.59983 1.56135 3.54315 1.41374 3.54315C1.26607 3.54315 1.13541 3.59983 1.02192 3.71355L0.1704 4.56519C0.0566808 4.67867 0 4.80934 0 4.95701C0 5.10455 0.0568598 5.23522 0.1704 5.3487L8.10828 13.2868C8.22176 13.4003 8.35248 13.457 8.50009 13.457C8.6477 13.457 8.77818 13.4003 8.8916 13.2868L16.8301 5.3487C16.9436 5.23516 17 5.10449 17 4.95701C17 4.80934 16.9436 4.67867 16.8301 4.56495Z" fill="white" />
        </svg>
    </symbol>
    <symbol id="notebook">
        <svg version="1.1" id="Capa_1" xmlns="http://www.w3.org/2000/svg" fill="white" xmlns:xlink="http://www.w3.org/1999/xlink" x="0px" y="0px" viewBox="0 0 850 850" xml:space="preserve">
            <g>
                <g>
                    <path d="M67.32,214.2H91.8v-91.8H67.32c0,0-36.72,0-36.72,45.9C30.6,214.2,67.32,214.2,67.32,214.2z" />
                    <path d="M67.32,336.6H91.8V244.8H67.32c0,0-36.72,0-36.72,45.9C30.6,336.6,67.32,336.6,67.32,336.6z" />
                    <path d="M67.32,489.6H91.8v-91.799H67.32c0,0-36.72,0-36.72,45.898C30.6,489.6,67.32,489.6,67.32,489.6z" />
                    <path d="M67.32,612H91.8v-91.801H67.32c0,0-36.72,0-36.72,45.9S67.32,612,67.32,612z" />
                    <path d="M122.399,91.555v551.291c0,16.768,13.74,30.354,30.845,30.354h397.34c17.014,0,30.814-13.922,30.814-30.354V91.555
			c0-16.769-13.739-30.355-30.814-30.355h-397.34C136.2,61.2,122.399,75.123,122.399,91.555z" />
                    <polygon points="642.6,612 642.6,0 183.6,0 183.6,28.703 614.631,28.703 614.631,612 		" />
                </g>
            </g>
        </svg>
    </symbol>
    <symbol id="yandex-btn">
        <svg width="200" height="44" viewBox="0 0 260 56" fill="none" xmlns="http://www.w3.org/2000/svg">
            <rect width="260" height="56" fill="black"/>
            <rect x="44" y="16" width="24" height="24" rx="12" fill="#FC3F1D"/>
            <path d="M57.6912 35.212H60.1982V20.812H56.5516C52.8843 20.812 50.9574 22.6975 50.9574 25.4739C50.9574 27.6909 52.0141 28.9962 53.8995 30.3429L50.6259 35.212H53.3401L56.9867 29.7628L55.7228 28.9133C54.1896 27.8773 53.4437 27.0693 53.4437 25.3288C53.4437 23.7956 54.5211 22.7596 56.5723 22.7596H57.6912V35.212Z" fill="white"/>
            <path d="M81.3961 21.528H85.3001C86.6655 21.528 87.7055 21.7413 88.4201 22.168C89.1348 22.5947 89.4921 23.3147 89.4921 24.328C89.4921 24.744 89.4335 25.1067 89.3161 25.416C89.1988 25.7147 89.0281 25.976 88.8041 26.2C88.5908 26.4133 88.3295 26.5893 88.0201 26.728C87.7108 26.8667 87.3695 26.9733 86.9961 27.048C87.9561 27.1653 88.6815 27.4267 89.1721 27.832C89.6628 28.2373 89.9081 28.856 89.9081 29.688C89.9081 30.2853 89.7908 30.7973 89.5561 31.224C89.3215 31.64 88.9961 31.9813 88.5801 32.248C88.1641 32.504 87.6735 32.696 87.1081 32.824C86.5428 32.9413 85.9295 33 85.2681 33H81.3961V21.528ZM83.3321 23.208V26.264H85.3961C86.0361 26.264 86.5535 26.1307 86.9481 25.864C87.3428 25.5867 87.5401 25.1547 87.5401 24.568C87.5401 24.0347 87.3588 23.6773 86.9961 23.496C86.6441 23.304 86.1428 23.208 85.4921 23.208H83.3321ZM83.3321 27.928V31.336H85.4601C85.8228 31.336 86.1535 31.3093 86.4521 31.256C86.7508 31.192 87.0068 31.096 87.2201 30.968C87.4335 30.8293 87.5988 30.6533 87.7161 30.44C87.8335 30.216 87.8921 29.944 87.8921 29.624C87.8921 28.9947 87.6841 28.5573 87.2681 28.312C86.8628 28.056 86.2068 27.928 85.3001 27.928H83.3321Z" fill="white"/>
            <path d="M95.2729 33.16C94.6862 33.16 94.1422 33.064 93.6409 32.872C93.1395 32.68 92.7022 32.4027 92.3289 32.04C91.9662 31.6667 91.6782 31.2133 91.4649 30.68C91.2622 30.1467 91.1609 29.5333 91.1609 28.84C91.1609 28.1467 91.2622 27.5333 91.4649 27C91.6782 26.4667 91.9662 26.0187 92.3289 25.656C92.7022 25.2827 93.1395 25.0053 93.6409 24.824C94.1422 24.632 94.6862 24.536 95.2729 24.536C95.8595 24.536 96.4035 24.632 96.9049 24.824C97.4062 25.0053 97.8435 25.2827 98.2169 25.656C98.5902 26.0187 98.8835 26.4667 99.0969 27C99.3102 27.5333 99.4169 28.1467 99.4169 28.84C99.4169 29.5333 99.3102 30.1467 99.0969 30.68C98.8835 31.2133 98.5902 31.6667 98.2169 32.04C97.8435 32.4027 97.4062 32.68 96.9049 32.872C96.4035 33.064 95.8595 33.16 95.2729 33.16ZM95.2729 31.608C95.9129 31.608 96.4409 31.384 96.8569 30.936C97.2835 30.488 97.4969 29.7893 97.4969 28.84C97.4969 27.9013 97.2835 27.208 96.8569 26.76C96.4409 26.3013 95.9129 26.072 95.2729 26.072C94.6435 26.072 94.1155 26.3013 93.6889 26.76C93.2729 27.208 93.0649 27.9013 93.0649 28.84C93.0649 29.7893 93.2729 30.488 93.6889 30.936C94.1155 31.384 94.6435 31.608 95.2729 31.608Z" fill="white"/>
            <path d="M104.714 23.704C104.266 23.704 103.876 23.6453 103.546 23.528C103.226 23.4107 102.954 23.2507 102.73 23.048C102.516 22.8347 102.356 22.5893 102.25 22.312C102.143 22.024 102.09 21.72 102.09 21.4H103.722C103.722 21.7733 103.807 22.0453 103.978 22.216C104.159 22.376 104.404 22.456 104.714 22.456C105.023 22.456 105.263 22.376 105.434 22.216C105.604 22.0453 105.69 21.7733 105.69 21.4H107.338C107.338 21.72 107.284 22.024 107.178 22.312C107.071 22.5893 106.906 22.8347 106.682 23.048C106.468 23.2507 106.196 23.4107 105.866 23.528C105.535 23.6453 105.151 23.704 104.714 23.704ZM102.81 30.488L106.65 24.696H108.474V33H106.634V27.24L102.826 33H100.97V24.696H102.81V30.488Z" fill="white"/>
            <path d="M114.275 26.2V33H112.419V26.2H109.907V24.696H116.835V26.2H114.275Z" fill="white"/>
            <path d="M120.091 30.488L123.931 24.696H125.755V33H123.915V27.24L120.107 33H118.251V24.696H120.091V30.488Z" fill="white"/>
            <path d="M135.184 33.16C134.512 33.16 133.91 33.064 133.376 32.872C132.843 32.6693 132.39 32.3867 132.016 32.024C131.643 31.6507 131.355 31.1973 131.152 30.664C130.95 30.1307 130.848 29.5227 130.848 28.84C130.848 28.168 130.95 27.5653 131.152 27.032C131.355 26.4987 131.643 26.0507 132.016 25.688C132.39 25.3147 132.848 25.032 133.392 24.84C133.936 24.6373 134.544 24.536 135.216 24.536C135.792 24.536 136.294 24.6 136.72 24.728C137.158 24.856 137.504 25.016 137.76 25.208V26.744C137.43 26.5307 137.067 26.3653 136.672 26.248C136.288 26.1307 135.84 26.072 135.328 26.072C133.611 26.072 132.752 26.9947 132.752 28.84C132.752 30.6853 133.595 31.608 135.28 31.608C135.824 31.608 136.288 31.5493 136.672 31.432C137.067 31.304 137.43 31.144 137.76 30.952V32.488C137.483 32.6693 137.136 32.8293 136.72 32.968C136.304 33.096 135.792 33.16 135.184 33.16Z" fill="white"/>
            <path d="M143.097 25.128C143.097 24.52 143.204 23.992 143.417 23.544C143.631 23.0853 143.929 22.712 144.313 22.424C144.697 22.1253 145.156 21.9013 145.689 21.752C146.233 21.6027 146.836 21.528 147.497 21.528H151.225V33H149.273V28.584H147.497L144.569 33H142.313L145.545 28.296C144.713 28.0933 144.095 27.7253 143.689 27.192C143.295 26.648 143.097 25.96 143.097 25.128ZM149.273 26.968V23.208H147.481C146.756 23.208 146.175 23.352 145.737 23.64C145.311 23.9173 145.097 24.3973 145.097 25.08C145.097 25.752 145.289 26.2373 145.673 26.536C146.057 26.824 146.601 26.968 147.305 26.968H149.273Z" fill="white"/>
            <path d="M158.845 29.496H155.341V33H153.485V24.696H155.341V27.992H158.845V24.696H160.701V33H158.845V29.496Z" fill="white"/>
            <path d="M162.558 31.496C162.804 31.2827 162.996 30.9893 163.134 30.616C163.284 30.2427 163.401 29.7787 163.486 29.224C163.572 28.6587 163.636 28.0027 163.678 27.256C163.721 26.5093 163.758 25.656 163.79 24.696H169.87V31.496H171.118V35.368H169.502L169.358 33H163.63L163.486 35.368H161.854V31.496H162.558ZM168.014 31.496V26.2H165.39C165.337 27.512 165.246 28.6 165.118 29.464C165.001 30.3173 164.804 30.9947 164.526 31.496H168.014Z" fill="white"/>
            <path d="M179.273 32.392C179.156 32.4667 179.012 32.552 178.841 32.648C178.67 32.7333 178.468 32.8133 178.233 32.888C177.998 32.9627 177.726 33.0267 177.417 33.08C177.108 33.1333 176.756 33.16 176.361 33.16C174.836 33.16 173.694 32.7813 172.937 32.024C172.19 31.2667 171.817 30.2053 171.817 28.84C171.817 28.168 171.918 27.5653 172.121 27.032C172.324 26.4987 172.606 26.0507 172.969 25.688C173.332 25.3147 173.764 25.032 174.265 24.84C174.766 24.6373 175.316 24.536 175.913 24.536C176.532 24.536 177.086 24.6373 177.577 24.84C178.078 25.0427 178.489 25.3467 178.809 25.752C179.129 26.1573 179.348 26.6587 179.465 27.256C179.593 27.8533 179.598 28.552 179.481 29.352H173.737C173.812 30.1093 174.062 30.68 174.489 31.064C174.916 31.4373 175.582 31.624 176.489 31.624C177.15 31.624 177.7 31.544 178.137 31.384C178.585 31.2133 178.964 31.0373 179.273 30.856V32.392ZM175.913 26.008C175.369 26.008 174.91 26.1733 174.537 26.504C174.164 26.8347 173.918 27.3253 173.801 27.976H177.705C177.726 27.304 177.577 26.808 177.257 26.488C176.937 26.168 176.489 26.008 175.913 26.008Z" fill="white"/>
            <path d="M183.78 29.624H183.06V33H181.204V24.696H183.06V28.12H183.844L186.484 24.696H188.436L185.3 28.696L188.564 33H186.372L183.78 29.624Z" fill="white"/>
            <path d="M193.231 33.16C192.559 33.16 191.957 33.064 191.423 32.872C190.89 32.6693 190.437 32.3867 190.063 32.024C189.69 31.6507 189.402 31.1973 189.199 30.664C188.997 30.1307 188.895 29.5227 188.895 28.84C188.895 28.168 188.997 27.5653 189.199 27.032C189.402 26.4987 189.69 26.0507 190.063 25.688C190.437 25.3147 190.895 25.032 191.439 24.84C191.983 24.6373 192.591 24.536 193.263 24.536C193.839 24.536 194.341 24.6 194.767 24.728C195.205 24.856 195.551 25.016 195.807 25.208V26.744C195.477 26.5307 195.114 26.3653 194.719 26.248C194.335 26.1307 193.887 26.072 193.375 26.072C191.658 26.072 190.799 26.9947 190.799 28.84C190.799 30.6853 191.642 31.608 193.327 31.608C193.871 31.608 194.335 31.5493 194.719 31.432C195.114 31.304 195.477 31.144 195.807 30.952V32.488C195.53 32.6693 195.183 32.8293 194.767 32.968C194.351 33.096 193.839 33.16 193.231 33.16Z" fill="white"/>
            <path d="M203.16 21.528V33H201.224V21.528H203.16Z" fill="white"/>
            <path d="M205.615 21.528H209.487C210.298 21.528 211.05 21.6187 211.743 21.8C212.447 21.9813 213.055 22.28 213.567 22.696C214.09 23.112 214.495 23.6613 214.783 24.344C215.082 25.0267 215.231 25.8693 215.231 26.872C215.231 27.8853 215.082 28.776 214.783 29.544C214.495 30.3013 214.084 30.936 213.551 31.448C213.028 31.96 212.404 32.3493 211.679 32.616C210.964 32.872 210.18 33 209.327 33H205.615V21.528ZM207.551 23.208V31.336H209.391C209.956 31.336 210.468 31.2507 210.927 31.08C211.396 30.9093 211.796 30.648 212.127 30.296C212.468 29.944 212.73 29.496 212.911 28.952C213.103 28.3973 213.199 27.7413 213.199 26.984C213.199 26.2373 213.108 25.624 212.927 25.144C212.746 24.6533 212.49 24.264 212.159 23.976C211.839 23.688 211.455 23.4907 211.007 23.384C210.559 23.2667 210.074 23.208 209.551 23.208H207.551Z" fill="white"/>
            </svg>
    </symbol>
</svg>