<svg width="38" height="38" viewBox="0 0 38 38" fill="none" xmlns="http://www.w3.org/2000/svg">
<g opacity="0.8" filter="url(#filter0_d_47_162)">
<rect x="4" width="30" height="30" rx="6" fill="white"/>
</g>
<path d="M17.3868 10.988H26.7618C26.8913 10.988 26.9961 10.8832 26.9961 10.7538C26.9961 10.6244 26.8913 10.5195 26.7618 10.5195H17.3868C17.2574 10.5195 17.1526 10.6244 17.1526 10.7538C17.1526 10.8832 17.2574 10.988 17.3868 10.988Z" fill="#344E41"/>
<path d="M26.7618 15.3352H17.3868C17.2574 15.3352 17.1526 15.44 17.1526 15.5695C17.1526 15.6989 17.2574 15.8037 17.3868 15.8037H26.7618C26.8913 15.8037 26.9961 15.6989 26.9961 15.5695C26.9961 15.44 26.8913 15.3352 26.7618 15.3352Z" fill="#344E41"/>
<path d="M26.7618 20.0117H17.3868C17.2574 20.0117 17.1526 20.1166 17.1526 20.246C17.1526 20.3754 17.2574 20.4802 17.3868 20.4802H26.7618C26.8913 20.4802 26.9961 20.3754 26.9961 20.246C26.9961 20.1166 26.8913 20.0117 26.7618 20.0117Z" fill="#344E41"/>
<path d="M13.4025 9.35522C12.6313 9.35522 12.0038 9.98269 12.0038 10.7539C12.0038 11.5251 12.6313 12.1526 13.4025 12.1526C14.1737 12.1526 14.8012 11.5251 14.8012 10.7539C14.8012 9.98269 14.1737 9.35522 13.4025 9.35522ZM13.4025 11.699C12.8813 11.699 12.4574 11.2751 12.4574 10.7539C12.4574 10.2327 12.8813 9.80886 13.4025 9.80886C13.9236 9.80886 14.3475 10.2327 14.3475 10.7539C14.3475 11.2751 13.9236 11.699 13.4025 11.699Z" fill="#344E41"/>
<path d="M13.4025 14.1707C12.6313 14.1707 12.0038 14.7981 12.0038 15.5693C12.0038 16.3406 12.6313 16.968 13.4025 16.968C14.1737 16.968 14.8012 16.3406 14.8012 15.5693C14.8012 14.7981 14.1737 14.1707 13.4025 14.1707ZM13.4025 16.5144C12.8813 16.5144 12.4574 16.0905 12.4574 15.5693C12.4574 15.0482 12.8813 14.6243 13.4025 14.6243C13.9236 14.6243 14.3475 15.0482 14.3475 15.5693C14.3475 16.0905 13.9236 16.5144 13.4025 16.5144Z" fill="#344E41"/>
<path d="M13.4025 18.8474C12.6313 18.8474 12.0038 19.4749 12.0038 20.2461C12.0038 21.0173 12.6313 21.6448 13.4025 21.6448C14.1737 21.6448 14.8012 21.0173 14.8012 20.2461C14.8012 19.4749 14.1737 18.8474 13.4025 18.8474ZM13.4025 21.1912C12.8813 21.1912 12.4574 20.7673 12.4574 20.2461C12.4574 19.7249 12.8813 19.301 13.4025 19.301C13.9236 19.301 14.3475 19.7249 14.3475 20.2461C14.3475 20.7673 13.9236 21.1912 13.4025 21.1912Z" fill="#344E41"/>
<defs>
<filter id="filter0_d_47_162" x="0" y="0" width="38" height="38" filterUnits="userSpaceOnUse" color-interpolation-filters="sRGB">
<feFlood flood-opacity="0" result="BackgroundImageFix"/>
<feColorMatrix in="SourceAlpha" type="matrix" values="0 0 0 0 0 0 0 0 0 0 0 0 0 0 0 0 0 0 127 0" result="hardAlpha"/>
<feOffset dy="4"/>
<feGaussianBlur stdDeviation="2"/>
<feComposite in2="hardAlpha" operator="out"/>
<feColorMatrix type="matrix" values="0 0 0 0 0 0 0 0 0 0 0 0 0 0 0 0 0 0 0.25 0"/>
<feBlend mode="normal" in2="BackgroundImageFix" result="effect1_dropShadow_47_162"/>
<feBlend mode="normal" in="SourceGraphic" in2="effect1_dropShadow_47_162" result="shape"/>
</filter>
</defs>
</svg>
