<svg width="15" height="15" viewBox="0 0 15 15" fill="none" xmlns="http://www.w3.org/2000/svg">
<path d="M1.34766 2.8125C0.618897 2.8125 0 3.40027 0 4.13086V10.8691C0 11.5997 0.618897 12.1875 1.34766 12.1875H13.6523C14.3811 12.1875 15 11.5997 15 10.8691V4.13086C15 3.40027 14.3811 2.8125 13.6523 2.8125H1.34766ZM1.34766 3.75H13.6523C13.894 3.75 14.0625 3.92944 14.0625 4.13086V10.8691C14.0625 11.0706 13.894 11.25 13.6523 11.25H1.34766C1.10596 11.25 0.9375 11.0706 0.9375 10.8691V4.13086C0.9375 3.92944 1.10596 3.75 1.34766 3.75ZM2.34375 5.15625V9.84375H3.75V6.72363L5.15625 8.58398L6.5625 6.72363V9.84375H7.96875V5.15625H6.5625L5.15625 7.03125L3.75 5.15625H2.34375ZM10.3125 5.15625V7.5H8.90625L11.0156 9.84375L13.125 7.5H11.7188V5.15625H10.3125Z" fill="#344E41"/>
</svg>
