<svg width="15" height="15" viewBox="0 0 15 15" fill="none" xmlns="http://www.w3.org/2000/svg">
<g clip-path="url(#clip0_47_198)">
<path d="M4.83002 2.53333H14.2905C14.6823 2.53333 15 2.21565 15 1.82379C15 1.43194 14.6823 1.11426 14.2905 1.11426H4.83002C4.43817 1.11426 4.12048 1.43194 4.12048 1.82379C4.12048 2.21565 4.43817 2.53333 4.83002 2.53333Z" fill="#344E41"/>
<path d="M14.2905 6.79053H4.83002C4.43817 6.79053 4.12048 7.10821 4.12048 7.50006C4.12048 7.89192 4.43817 8.2096 4.83002 8.2096H14.2905C14.6823 8.2096 15 7.89192 15 7.50006C15 7.10816 14.6824 6.79053 14.2905 6.79053Z" fill="#344E41"/>
<path d="M14.2905 12.4668H4.83002C4.43817 12.4668 4.12048 12.7845 4.12048 13.1763C4.12048 13.5682 4.43817 13.8859 4.83002 13.8859H14.2905C14.6823 13.8859 15 13.5682 15 13.1763C15 12.7845 14.6824 12.4668 14.2905 12.4668Z" fill="#344E41"/>
<path d="M0.843233 2.31962V4.09648C0.843233 4.28919 1.00028 4.43451 1.2086 4.43451C1.41342 4.43451 1.57382 4.28602 1.57382 4.09648V1.43932C1.57382 1.252 1.42023 1.10522 1.22416 1.10522C1.05169 1.10522 0.965415 1.22093 0.937081 1.25896C0.935899 1.26057 0.934716 1.26217 0.933534 1.26388L0.624839 1.70057C0.564906 1.76575 0.511597 1.87001 0.511597 1.97001C0.511549 2.16063 0.659795 2.31612 0.843233 2.31962Z" fill="#344E41"/>
<path d="M0.360996 9.16473H1.75197C1.93404 9.16473 2.08219 9.00433 2.08219 8.80717C2.08219 8.6121 1.93408 8.4534 1.75197 8.4534H0.741969V8.44758C0.741969 8.34139 0.985482 8.16954 1.18117 8.03146C1.57042 7.75678 2.05485 7.41497 2.05485 6.82218C2.05485 6.25961 1.61891 5.83545 1.04078 5.83545C0.487199 5.83545 0.069803 6.21595 0.069803 6.72052C0.069803 7.01333 0.260384 7.11725 0.423577 7.11725C0.657156 7.11725 0.796745 6.94332 0.796745 6.77525C0.796745 6.67076 0.823613 6.5508 1.03297 6.5508C1.31579 6.5508 1.32393 6.80141 1.32393 6.82998C1.32393 7.05523 1.0316 7.26582 0.748875 7.46946C0.399406 7.72116 0.00329591 8.00649 0.00329591 8.44767V8.82666C0.00324861 9.02888 0.188248 9.16473 0.360996 9.16473Z" fill="#344E41"/>
<path d="M2.00784 11.4843C2.00784 10.9005 1.6631 10.5657 1.06208 10.5657C0.274022 10.5657 0.0657976 11.1285 0.0657976 11.4261C0.0657976 11.7725 0.323359 11.8099 0.434094 11.8099C0.649745 11.8099 0.794585 11.665 0.794585 11.4494C0.794585 11.3664 0.824102 11.2712 1.05413 11.2712C1.21945 11.2712 1.28677 11.295 1.28677 11.5346C1.28677 11.7686 1.23653 11.7941 1.03866 11.7941C0.848604 11.7941 0.705325 11.9441 0.705325 12.143C0.705325 12.3397 0.850354 12.4881 1.04264 12.4881C1.30398 12.4881 1.35649 12.5948 1.35649 12.767V12.8408C1.35649 13.1305 1.24348 13.1855 1.03493 13.1855C0.747188 13.1855 0.724814 13.0373 0.724814 12.9919C0.724814 12.8202 0.610957 12.6468 0.356565 12.6468C0.133298 12.6468 0 12.786 0 13.0191C0 13.4436 0.364039 13.8949 1.03866 13.8949C1.69399 13.8949 2.08528 13.5008 2.08528 12.8408V12.767C2.08528 12.4964 1.99871 12.272 1.83628 12.1107C1.94753 11.9497 2.00784 11.7349 2.00784 11.4843Z" fill="#344E41"/>
</g>
<defs>
<clipPath id="clip0_47_198">
<rect width="15" height="15" fill="white"/>
</clipPath>
</defs>
</svg>
