<svg width="20" height="20" viewBox="0 0 20 20" fill="none" xmlns="http://www.w3.org/2000/svg">
<path d="M15.7779 0L2.11109 13.6668L0 20L6.33313 17.8889L20 4.22211L15.7779 0ZM11.5558 5.9109L12.4002 6.75531L4.3218 14.8338L3.47738 13.9894L11.5558 5.9109ZM2.79422 17.8098L2.1902 17.2058L2.89391 15.0948L4.90527 17.1061L2.79422 17.8098ZM6.01059 16.5226L5.16617 15.6782L13.2446 7.59973L14.0891 8.44414L6.01059 16.5226ZM14.9335 7.5998L12.4002 5.06652L13.2446 4.22211L15.7779 6.75539L14.9335 7.5998ZM14.089 3.37766L15.7779 1.68879L18.3112 4.22211L16.6223 5.91094L14.089 3.37766Z" fill="#344E41"/>
</svg>
