<svg width="20" height="20" viewBox="0 0 20 20" fill="none" xmlns="http://www.w3.org/2000/svg">
<path d="M14.809 13.7162C14.1891 13.7162 13.6117 13.8964 13.1248 14.2063L8.21087 10.7756C8.28976 10.5002 8.33289 10.2098 8.33289 9.90908C8.33289 9.60835 8.28976 9.31787 8.21087 9.04253L12.9921 5.70441C13.5051 6.06881 14.1318 6.2838 14.809 6.2838C16.5441 6.2838 17.9508 4.87711 17.9508 3.14192C17.9508 1.40673 16.5442 0 14.809 0C13.0738 0 11.6671 1.40669 11.6671 3.14188C11.6671 3.37104 11.6923 3.59423 11.7389 3.80944L6.83624 7.23233C6.35767 6.93758 5.79434 6.7672 5.19101 6.7672C3.45582 6.7672 2.04913 8.17389 2.04913 9.90908C2.04913 11.6443 3.45578 13.051 5.19101 13.051C5.79429 13.051 6.35767 12.8806 6.83624 12.5858L11.7768 16.0351C11.7057 16.2975 11.6671 16.5733 11.6671 16.8581C11.6671 18.5933 13.0738 20 14.809 20C16.5442 20 17.9509 18.5933 17.9509 16.8581C17.9509 15.1229 16.5442 13.7162 14.809 13.7162Z" fill="#344E41"/>
</svg>
