<svg width="15" height="15" viewBox="0 0 15 15" fill="none" xmlns="http://www.w3.org/2000/svg">
<path d="M0 1.25439V3.10833V3.61395V13.7455H15V3.61395V3.10833V1.25439H0ZM9.32585 9.35709H5.67415V6.99114H9.32585V9.35709ZM10.3371 6.99114H13.9888V9.35709H10.3371V6.99114ZM9.32585 10.3683V12.7343H5.67415V10.3683H9.32585ZM1.01124 6.99114H4.66291V9.35709H1.01124V6.99114ZM5.67415 5.9799V3.61395H9.32585V5.9799H5.67415ZM4.66291 3.61395V5.9799H1.01124V3.61395H4.66291ZM1.01124 10.3683H4.66291V12.7343H1.01124V10.3683ZM10.3371 12.7343V10.3683H13.9888V12.7343H10.3371ZM13.9888 5.9799H10.3371V3.61395H13.9888V5.9799Z" fill="#344E41"/>
</svg>
