<svg width="20" height="20" viewBox="0 0 20 20" fill="none" xmlns="http://www.w3.org/2000/svg">
<g clip-path="url(#clip0_43_93)">
<path d="M14.5497 9.68331L10.3211 5.45464L10.9227 4.85303L15.1514 9.0817L14.5497 9.68331ZM12.2832 11.9499L8.05452 7.72123L8.65613 7.11962L12.8848 11.3483L12.2832 11.9499ZM10.0166 14.2164L5.78796 9.98771L6.38961 9.38606L10.6183 13.6147L10.0166 14.2164ZM7.74984 16.4831L3.52112 12.2544L4.12277 11.6527L8.35149 15.8815L7.74984 16.4831Z" fill="#344E41"/>
<path d="M19.4895 0.518497C19.1588 0.186762 18.7188 0.00415039 18.2451 0.00415039L12.5205 0.0218011C12.0549 0.0232446 11.6173 0.205237 11.2887 0.534292L0.515473 11.3073C-0.457174 12.364 0.184975 13.4512 0.515473 13.7816L6.22252 19.4886C7.28429 20.4427 8.36651 19.8191 8.69681 19.4886L19.4698 8.71558C19.7989 8.38653 19.9809 7.94901 19.9823 7.48362L20 1.75896C20.0015 1.29072 19.8201 0.850273 19.4895 0.518497ZM19.1314 7.48118C19.1308 7.72009 19.0373 7.94485 18.8682 8.11397L8.0952 18.887C7.75571 19.2264 7.16362 19.2264 6.82418 18.887L1.11712 13.1799C0.947422 13.0102 0.619275 12.4132 1.11712 11.9089L11.8906 1.13594C12.0593 0.966818 12.284 0.873326 12.5229 0.872749L18.2505 0.855098C18.4911 0.855098 18.7169 0.949002 18.8869 1.11928C19.0566 1.28965 19.1499 1.51593 19.149 1.75648L19.1314 7.48118Z" fill="#344E41"/>
<path d="M16.1111 2.23169C15.1936 2.23169 14.4498 2.97545 14.4498 3.89296C14.4498 4.81047 15.1936 5.55424 16.1111 5.55424C17.0286 5.55424 17.7723 4.81047 17.7723 3.89296C17.7723 2.97545 17.0286 2.23169 16.1111 2.23169ZM16.1111 4.7195C15.6546 4.7195 15.2846 4.34945 15.2846 3.89296C15.2846 3.43648 15.6546 3.06643 16.1111 3.06643C16.5675 3.06643 16.9376 3.43648 16.9376 3.89296C16.9376 4.34945 16.5675 4.7195 16.1111 4.7195Z" fill="#344E41"/>
</g>
<defs>
<clipPath id="clip0_43_93">
<rect width="20" height="20" fill="white"/>
</clipPath>
</defs>
</svg>
